<?xml version="1.0" encoding="UTF-8" standalone="no"?>
<!-- Created with Inkscape (http://www.inkscape.org/) -->

<svg
   xmlns:dc="http://purl.org/dc/elements/1.1/"
   xmlns:cc="http://creativecommons.org/ns#"
   xmlns:rdf="http://www.w3.org/1999/02/22-rdf-syntax-ns#"
   xmlns:svg="http://www.w3.org/2000/svg"
   xmlns="http://www.w3.org/2000/svg"
   xmlns:sodipodi="http://sodipodi.sourceforge.net/DTD/sodipodi-0.dtd"
   xmlns:inkscape="http://www.inkscape.org/namespaces/inkscape"
   width="210mm"
   height="297mm"
   viewBox="0 0 210 297"
   version="1.1"
   id="svg8"
   inkscape:version="0.92.4 (5da689c313, 2019-01-14)"
   sodipodi:docname="trend_icons.svg">
  <defs
     id="defs2">
    <inkscape:perspective
       sodipodi:type="inkscape:persp3d"
       inkscape:vp_x="244.58786 : 282.02394 : 1"
       inkscape:vp_y="0 : -1000 : 0"
       inkscape:vp_z="46.116133 : 279.3781 : 1"
       inkscape:persp3d-origin="154.51792 : 362.14001 : 1"
       id="perspective1094" />
    <marker
       inkscape:isstock="true"
       style="overflow:visible;"
       id="marker984"
       refX="0.0"
       refY="0.0"
       orient="auto"
       inkscape:stockid="Arrow2Lend">
      <path
         transform="scale(1.1) rotate(180) translate(1,0)"
         d="M 8.7185878,4.0337352 L -2.2072895,0.016013256 L 8.7185884,-4.0017078 C 6.9730900,-1.6296469 6.9831476,1.6157441 8.7185878,4.0337352 z "
         style="fill-rule:evenodd;stroke-width:0.625;stroke-linejoin:round;stroke:#000000;stroke-opacity:1;fill:#000000;fill-opacity:1"
         id="path982" />
    </marker>
    <marker
       inkscape:stockid="Arrow2Lend"
       orient="auto"
       refY="0.0"
       refX="0.0"
       id="Arrow2Lend"
       style="overflow:visible;"
       inkscape:isstock="true"
       inkscape:collect="always">
      <path
         id="path846"
         style="fill-rule:evenodd;stroke-width:0.625;stroke-linejoin:round;stroke:#000000;stroke-opacity:1;fill:#000000;fill-opacity:1"
         d="M 8.7185878,4.0337352 L -2.2072895,0.016013256 L 8.7185884,-4.0017078 C 6.9730900,-1.6296469 6.9831476,1.6157441 8.7185878,4.0337352 z "
         transform="scale(1.1) rotate(180) translate(1,0)" />
    </marker>
    <marker
       inkscape:stockid="Tail"
       orient="auto"
       refY="0.0"
       refX="0.0"
       id="Tail"
       style="overflow:visible"
       inkscape:isstock="true">
      <g
         id="g873"
         transform="scale(-1.2)"
         style="stroke:#000000;stroke-opacity:1;fill:#000000;fill-opacity:1">
        <path
           id="path861"
           d="M -3.8048674,-3.9585227 L 0.54352094,0"
           style="fill:#000000;fill-rule:evenodd;stroke:#000000;stroke-width:0.8;stroke-linecap:round;stroke-opacity:1;fill-opacity:1" />
        <path
           id="path863"
           d="M -1.2866832,-3.9585227 L 3.0617053,0"
           style="fill:#000000;fill-rule:evenodd;stroke:#000000;stroke-width:0.8;stroke-linecap:round;stroke-opacity:1;fill-opacity:1" />
        <path
           id="path865"
           d="M 1.3053582,-3.9585227 L 5.6537466,0"
           style="fill:#000000;fill-rule:evenodd;stroke:#000000;stroke-width:0.8;stroke-linecap:round;stroke-opacity:1;fill-opacity:1" />
        <path
           id="path867"
           d="M -3.8048674,4.1775838 L 0.54352094,0.21974226"
           style="fill:#000000;fill-rule:evenodd;stroke:#000000;stroke-width:0.8;stroke-linecap:round;stroke-opacity:1;fill-opacity:1" />
        <path
           id="path869"
           d="M -1.2866832,4.1775838 L 3.0617053,0.21974226"
           style="fill:#000000;fill-rule:evenodd;stroke:#000000;stroke-width:0.8;stroke-linecap:round;stroke-opacity:1;fill-opacity:1" />
        <path
           id="path871"
           d="M 1.3053582,4.1775838 L 5.6537466,0.21974226"
           style="fill:#000000;fill-rule:evenodd;stroke:#000000;stroke-width:0.8;stroke-linecap:round;stroke-opacity:1;fill-opacity:1" />
      </g>
    </marker>
    <marker
       inkscape:stockid="Arrow1Lend"
       orient="auto"
       refY="0.0"
       refX="0.0"
       id="Arrow1Lend"
       style="overflow:visible;"
       inkscape:isstock="true">
      <path
         id="path828"
         d="M 0.0,0.0 L 5.0,-5.0 L -12.5,0.0 L 5.0,5.0 L 0.0,0.0 z "
         style="fill-rule:evenodd;stroke:#000000;stroke-width:1pt;stroke-opacity:1;fill:#000000;fill-opacity:1"
         transform="scale(0.8) rotate(180) translate(12.5,0)" />
    </marker>
    <marker
       inkscape:stockid="Arrow2Lend"
       orient="auto"
       refY="0"
       refX="0"
       id="Arrow2Lend-1"
       style="overflow:visible"
       inkscape:isstock="true">
      <path
         inkscape:connector-curvature="0"
         id="path846-9"
         style="fill:#0a64c4;fill-opacity:1;fill-rule:evenodd;stroke:#0a64c4;stroke-width:0.625;stroke-linejoin:round;stroke-opacity:1"
         d="M 8.7185878,4.0337352 -2.2072895,0.01601326 8.7185884,-4.0017078 c -1.7454984,2.3720609 -1.7354408,5.6174519 -6e-7,8.035443 z"
         transform="matrix(-1.1,0,0,-1.1,-1.1,0)" />
    </marker>
    <marker
       inkscape:stockid="Arrow2Lend"
       orient="auto"
       refY="0"
       refX="0"
       id="Arrow2Lend-2"
       style="overflow:visible"
       inkscape:isstock="true">
      <path
         inkscape:connector-curvature="0"
         id="path846-2"
         style="fill:#8f8f8f;fill-opacity:1;fill-rule:evenodd;stroke:#8f8f8f;stroke-width:0.625;stroke-linejoin:round;stroke-opacity:1"
         d="M 8.7185878,4.0337352 -2.2072895,0.01601326 8.7185884,-4.0017078 c -1.7454984,2.3720609 -1.7354408,5.6174519 -6e-7,8.035443 z"
         transform="matrix(-1.1,0,0,-1.1,-1.1,0)" />
    </marker>
    <marker
       inkscape:stockid="Arrow2Lend"
       orient="auto"
       refY="0"
       refX="0"
       id="Arrow2Lend-1-1"
       style="overflow:visible"
       inkscape:isstock="true">
      <path
         inkscape:connector-curvature="0"
         id="path846-9-6"
         style="fill:#c4300a;fill-opacity:1;fill-rule:evenodd;stroke:#c4300a;stroke-width:0.625;stroke-linejoin:round;stroke-opacity:1"
         d="M 8.7185878,4.0337352 -2.2072895,0.01601326 8.7185884,-4.0017078 c -1.7454984,2.3720609 -1.7354408,5.6174519 -6e-7,8.035443 z"
         transform="matrix(-1.1,0,0,-1.1,-1.1,0)" />
    </marker>
    <marker
       inkscape:stockid="Arrow2Lend"
       orient="auto"
       refY="0"
       refX="0"
       id="Arrow2Lend-6"
       style="overflow:visible"
       inkscape:isstock="true">
      <path
         inkscape:connector-curvature="0"
         id="path846-0"
         style="fill:#f56642;fill-opacity:1;fill-rule:evenodd;stroke:#f56642;stroke-width:0.625;stroke-linejoin:round;stroke-opacity:1"
         d="M 8.7185878,4.0337352 -2.2072895,0.01601326 8.7185884,-4.0017078 c -1.7454984,2.3720609 -1.7354408,5.6174519 -6e-7,8.035443 z"
         transform="matrix(-1.1,0,0,-1.1,-1.1,0)" />
    </marker>
  </defs>
  <sodipodi:namedview
     id="base"
     pagecolor="#ffffff"
     bordercolor="#666666"
     borderopacity="1.0"
     inkscape:pageopacity="0.0"
     inkscape:pageshadow="2"
     inkscape:zoom="5.6"
     inkscape:cx="549.19116"
     inkscape:cy="880.61242"
     inkscape:document-units="mm"
     inkscape:current-layer="layer1"
     showgrid="false"
     showguides="false"
     inkscape:window-width="1920"
     inkscape:window-height="1137"
     inkscape:window-x="-8"
     inkscape:window-y="-8"
     inkscape:window-maximized="1" />
  <metadata
     id="metadata5">
    <rdf:RDF>
      <cc:Work
         rdf:about="">
        <dc:format>image/svg+xml</dc:format>
        <dc:type
           rdf:resource="http://purl.org/dc/dcmitype/StillImage" />
        <dc:title />
      </cc:Work>
    </rdf:RDF>
  </metadata>
  <g
     inkscape:label="Layer 1"
     inkscape:groupmode="layer"
     id="layer1">
    <path
       style="fill:none;stroke:#4299f5;stroke-width:1.32291663;stroke-linecap:butt;stroke-linejoin:miter;stroke-miterlimit:4;stroke-dasharray:none;stroke-opacity:1;marker-end:url(#Arrow2Lend)"
       d="m 1.8208777,86.845236 c 16.0639863,0 36.1999993,-12.806669 36.1999993,-12.806669"
       id="path815"
       inkscape:connector-curvature="0"
       sodipodi:nodetypes="cc"
       inkscape:export-xdpi="85.318703"
       inkscape:export-ydpi="85.318703"
       inkscape:export-filename="C:\Users\Noah Eltzroth\Documents\Arduino\weather_station\weather_station\data\up.png" />
    <path
       style="fill:none;stroke:#0a64c4;stroke-width:1.32291663;stroke-linecap:butt;stroke-linejoin:miter;stroke-miterlimit:4;stroke-dasharray:none;stroke-opacity:1;marker-end:url(#Arrow2Lend-1)"
       d="M 1.9178139,69.813961 C 12.123169,68.302051 35.282993,44.723063 35.282993,44.723063"
       id="path815-4"
       inkscape:connector-curvature="0"
       sodipodi:nodetypes="cc"
       inkscape:export-xdpi="55.671162"
       inkscape:export-ydpi="55.671162"
       inkscape:export-filename="C:\Users\Noah Eltzroth\Documents\Arduino\weather_station\weather_station\data\big_up.png" />
    <path
       style="fill:none;stroke:#8f8f8f;stroke-width:1.32291663;stroke-linecap:butt;stroke-linejoin:miter;stroke-miterlimit:4;stroke-dasharray:none;stroke-opacity:1;marker-end:url(#Arrow2Lend-2)"
       d="m 1.8208777,100.43002 c 16.0639873,0 36.2000013,0.0445 36.2000013,0.0445"
       id="path815-8"
       inkscape:connector-curvature="0"
       sodipodi:nodetypes="cc"
       inkscape:export-xdpi="60.463608"
       inkscape:export-ydpi="60.463608"
       inkscape:export-filename="C:\Users\Noah Eltzroth\Documents\Arduino\weather_station\weather_station\data\steady.png" />
    <path
       style="fill:none;stroke:#f56642;stroke-width:1.32291663;stroke-linecap:butt;stroke-linejoin:miter;stroke-miterlimit:4;stroke-dasharray:none;stroke-opacity:1;marker-end:url(#Arrow2Lend-6)"
       d="m 1.8208777,116.27946 c 16.0639873,0 36.2000013,12.80667 36.2000013,12.80667"
       id="path815-0"
       inkscape:connector-curvature="0"
       sodipodi:nodetypes="cc"
       inkscape:export-xdpi="85.544685"
       inkscape:export-ydpi="85.544685"
       inkscape:export-filename="C:\Users\Noah Eltzroth\Documents\Arduino\weather_station\weather_station\data\down.png" />
    <path
       style="fill:none;stroke:#c4300a;stroke-width:1.32291663;stroke-linecap:butt;stroke-linejoin:miter;stroke-miterlimit:4;stroke-dasharray:none;stroke-opacity:1;marker-end:url(#Arrow2Lend-1-1)"
       d="m 1.9178139,133.31073 c 10.2053561,1.51191 33.3651791,25.0909 33.3651791,25.0909"
       id="path815-4-9"
       inkscape:connector-curvature="0"
       sodipodi:nodetypes="cc"
       inkscape:export-xdpi="55.545486"
       inkscape:export-ydpi="55.545486"
       inkscape:export-filename="C:\Users\Noah Eltzroth\Documents\Arduino\weather_station\weather_station\data\big_down.png" />
    <g
       aria-label="?"
       style="font-style:normal;font-variant:normal;font-weight:normal;font-stretch:normal;font-size:16.93333244px;line-height:1.25;font-family:sans-serif;-inkscape-font-specification:'sans-serif, Normal';font-variant-ligatures:normal;font-variant-caps:normal;font-variant-numeric:normal;font-feature-settings:normal;text-align:start;letter-spacing:0px;word-spacing:0px;writing-mode:lr-tb;text-anchor:start;fill:#8f8f8f;fill-opacity:1;stroke:none;stroke-width:0.26458332;stroke-opacity:1"
       id="text877"
       transform="translate(-12.473214,0.56696429)"
       inkscape:export-xdpi="121.26316"
       inkscape:export-ydpi="121.26316"
       inkscape:export-filename="C:\Users\Noah Eltzroth\Documents\Arduino\weather_station\weather_station\data\unknown.png">
      <path
         d="m 75.426336,103.26594 h 1.67845 v 2.10013 h -1.67845 z m 1.628841,-1.21543 h -1.579232 v -1.2733 q 0,-0.835094 0.231511,-1.372529 0.23151,-0.537435 0.975651,-1.248503 l 0.74414,-0.735872 q 0.471289,-0.438216 0.677995,-0.826823 0.214974,-0.388607 0.214974,-0.79375 0,-0.735872 -0.545703,-1.190625 -0.537435,-0.454753 -1.430404,-0.454753 -0.65319,0 -1.39733,0.289388 -0.735873,0.289388 -1.537891,0.84336 v -1.554427 q 0.777214,-0.471289 1.570964,-0.7028 0.802018,-0.23151 1.653645,-0.23151 1.521354,0 2.439128,0.802018 0.926041,0.802018 0.926041,2.116667 0,0.628385 -0.297656,1.198893 -0.297656,0.562239 -1.041797,1.273307 l -0.727604,0.711068 q -0.388606,0.388606 -0.553971,0.611849 -0.157096,0.214974 -0.223242,0.421679 -0.04961,0.173633 -0.07441,0.421683 -0.02481,0.24804 -0.02481,0.67799 z"
         style="font-style:normal;font-variant:normal;font-weight:normal;font-stretch:normal;font-size:16.93333244px;font-family:sans-serif;-inkscape-font-specification:'sans-serif, Normal';font-variant-ligatures:normal;font-variant-caps:normal;font-variant-numeric:normal;font-feature-settings:normal;text-align:start;writing-mode:lr-tb;text-anchor:start;fill:#8f8f8f;fill-opacity:1;stroke:none;stroke-width:0.26458332;stroke-opacity:1"
         id="path879"
         inkscape:connector-curvature="0" />
    </g>
    <path
       sodipodi:type="spiral"
       style="fill:none;fill-rule:evenodd;stroke:#000000"
       id="path1064"
       sodipodi:cx="0"
       sodipodi:cy="0"
       sodipodi:expansion="1"
       sodipodi:revolution="3"
       sodipodi:radius="1"
       sodipodi:argument="0"
       sodipodi:t0="0"
       d="M 0,0 C 0.05013841,0 0.02473652,0.06758557 0,0.08333333 -0.06703445,0.12600879 -0.14611508,0.06456472 -0.16666667,0 -0.20342863,-0.11549113 -0.11012555,-0.22663063 0,-0.25 0.16161367,-0.28429549 0.30858196,-0.15551747 0.33333333,0 0.36632302,0.20728033 0.20089447,0.39108799 0,0.41666667 -0.25280518,0.44885482 -0.47386938,0.24627533 -0.5,0 -0.53164769,-0.29827242 -0.29166057,-0.55680806 0,-0.58333333 0.34371189,-0.61459245 0.63984517,-0.3370489 0.66666667,0 0.69763315,0.3891363 0.38243928,0.72294795 0,0.75 -0.43455181,0.78073825 -0.80609677,0.42783099 -0.83333333,0 -0.86388864,-0.47996171 -0.47322359,-0.88927908 0,-0.91666667 0.52536788,-0.94707208 0.97248652,-0.51861679 1,0"
       transform="scale(0.26458333)" />
    <g
       id="g1137"
       inkscape:export-filename="C:\Users\Noah Eltzroth\Documents\Arduino\weather_station\weather_station\data\reset.png"
       inkscape:export-xdpi="26.299999"
       inkscape:export-ydpi="26.299999">
      <g
         inkscape:corner7="-0.15563744 : 0.1356752 : 0.13854719 : 1"
         inkscape:corner0="-0.075556467 : 0.11819292 : 0 : 1"
         inkscape:perspectiveID="#perspective1094"
         style="fill:#cfcfcf;fill-opacity:1;stroke:#000000;stroke-width:1.00157475;stroke-linecap:round;stroke-miterlimit:4;stroke-dasharray:none;stroke-opacity:1"
         id="g1096"
         sodipodi:type="inkscape:box3d">
        <path
           points="147.15634,75.076146 133.98705,67.587724 133.98705,51.14141 147.15634,56.165008 "
           d="M 147.15634,56.165008 V 75.076146 L 133.98705,67.587724 V 51.14141 Z"
           inkscape:box3dsidetype="6"
           style="fill:#cfcfcf;fill-rule:evenodd;stroke:#000000;stroke-linejoin:round;stroke-opacity:1;fill-opacity:1"
           id="path1098"
           sodipodi:type="inkscape:box3dside" />
        <path
           points="124.97603,54.087922 124.97603,71.874173 133.98705,67.587724 133.98705,51.14141 "
           d="m 133.98705,51.14141 -9.01102,2.946512 v 17.786251 l 9.01102,-4.286449 z"
           inkscape:box3dsidetype="11"
           style="fill:#cfcfcf;fill-rule:evenodd;stroke:#000000;stroke-linejoin:round;stroke-opacity:1;fill-opacity:1"
           id="path1108"
           sodipodi:type="inkscape:box3dside" />
        <path
           points="137.91575,80.776153 124.97603,71.874173 133.98705,67.587724 147.15634,75.076146 "
           d="m 147.15634,75.076146 -9.24059,5.700007 -12.93972,-8.90198 9.01102,-4.286449 z"
           inkscape:box3dsidetype="13"
           style="fill:#cfcfcf;fill-rule:evenodd;stroke:#000000;stroke-linejoin:round;stroke-opacity:1;fill-opacity:1"
           id="path1106"
           sodipodi:type="inkscape:box3dside" />
        <path
           points="137.91575,60.071446 124.97603,54.087922 133.98705,51.14141 147.15634,56.165008 "
           d="m 147.15634,56.165008 -9.24059,3.906438 -12.93972,-5.983524 9.01102,-2.946512 z"
           inkscape:box3dsidetype="5"
           style="fill:#ffffff;fill-rule:evenodd;stroke:#000000;stroke-linejoin:round;stroke-opacity:1;fill-opacity:1"
           id="path1100"
           sodipodi:type="inkscape:box3dside" />
        <path
           points="137.91575,80.776153 124.97603,71.874173 124.97603,54.087922 137.91575,60.071446 "
           d="m 137.91575,60.071446 v 20.704707 l -12.93972,-8.90198 V 54.087922 Z"
           inkscape:box3dsidetype="14"
           style="fill:#cfcfcf;fill-rule:evenodd;stroke:#000000;stroke-linejoin:round;stroke-opacity:1;fill-opacity:1"
           id="path1104"
           sodipodi:type="inkscape:box3dside" />
        <path
           points="137.91575,60.071446 137.91575,80.776153 147.15634,75.076146 147.15634,56.165008 "
           d="m 147.15634,56.165008 -9.24059,3.906438 v 20.704707 l 9.24059,-5.700007 z"
           inkscape:box3dsidetype="3"
           style="fill:#cfcfcf;fill-rule:evenodd;stroke:#000000;stroke-linejoin:round;stroke-opacity:1;fill-opacity:1"
           id="path1102"
           sodipodi:type="inkscape:box3dside" />
      </g>
      <path
         inkscape:connector-curvature="0"
         id="path1124"
         d="m 127.33073,58.827751 7.70126,16.583705"
         style="fill:none;stroke:#ff0202;stroke-width:1;stroke-linecap:round;stroke-linejoin:miter;stroke-opacity:1;stroke-miterlimit:4;stroke-dasharray:none" />
      <path
         inkscape:connector-curvature="0"
         id="path1126"
         d="m 134.79576,62.418525 -7.98475,7.79576"
         style="fill:none;stroke:#ff0202;stroke-width:1;stroke-linecap:round;stroke-linejoin:miter;stroke-opacity:1;stroke-miterlimit:4;stroke-dasharray:none" />
    </g>
  </g>
</svg>
