G04 --- HEADER BEGIN --- *
%TF.GenerationSoftware,LibrePCB,LibrePCB,0.1.4*%
%TF.CreationDate,2020-05-17T22:40:43*%
%TF.ProjectId,Weather-Station-v1 - default,0f98d3d9-bdb5-4b12-bb1d-3210ebaa1a1a,v1*%
%TF.Part,Single*%
%FSLAX66Y66*%
%MOMM*%
G01*
G74*
G04 --- HEADER END --- *
G04 --- APERTURE LIST BEGIN --- *
%ADD10C,0.2*%
%ADD11C,5.28X4.88*%
%ADD12C,0.1524*%
%ADD13C,0.25*%
%ADD14C,14.568408X14.168408*%
%ADD15O,2.7X1.5*%
%ADD16O,1.5X2.7*%
%ADD17P,1.8256X8X112.5*%
%ADD18O,2.39X1.787*%
%ADD19R,2.39X1.787*%
G04 --- APERTURE LIST END --- *
G04 --- BOARD BEGIN --- *
D10*
X47625000Y73025000D02*
X75565000Y73025000D01*
X75565000Y27305000D01*
X47625000Y27305000D01*
X47625000Y73025000D01*
X17145000Y8255000D02*
X17145000Y5715000D01*
X14605000Y5715000D01*
X14605000Y8255000D01*
X17145000Y8255000D01*
X24765000Y20955000D02*
X24765000Y3175000D01*
X12065000Y3175000D01*
X12065000Y20955000D01*
X24765000Y20955000D01*
D11*
X22225000Y5715000D03*
D12*
X39751000Y45720000D02*
X39497000Y45974000D01*
X41783000Y51816000D02*
X41783000Y51435000D01*
X39497000Y45974000D02*
X39497000Y46355000D01*
X41783000Y45974000D02*
X41783000Y46355000D01*
X41656000Y46482000D02*
X41783000Y46355000D01*
X41783000Y51816000D02*
X41529000Y52070000D01*
X41656000Y51308000D02*
X41783000Y51435000D01*
X39624000Y46482000D02*
X39497000Y46355000D01*
X39497000Y51816000D02*
X39751000Y52070000D01*
X39624000Y51308000D02*
X39497000Y51435000D01*
X39497000Y51816000D02*
X39497000Y51435000D01*
X39624000Y51308000D02*
X39624000Y46482000D01*
X41529000Y45720000D02*
X41783000Y45974000D01*
X41656000Y51308000D02*
X41656000Y46482000D01*
D13*
X33530000Y38245000D02*
X33530000Y40370000D01*
X33800000Y40640000D01*
X33530000Y40910000D01*
X33530000Y43035000D01*
X33800000Y43305000D01*
X36050000Y43305000D01*
X36320000Y43035000D01*
X36320000Y40910000D01*
X36050000Y40640000D01*
X36320000Y40370000D01*
X36320000Y38245000D01*
X36050000Y37975000D01*
X33800000Y37975000D01*
X33530000Y38245000D01*
X83695000Y64280000D02*
X83695000Y66405000D01*
X83965000Y66675000D01*
X83695000Y66945000D01*
X83695000Y69070000D01*
X83965000Y69340000D01*
X86215000Y69340000D01*
X86485000Y69070000D01*
X86485000Y66945000D01*
X86215000Y66675000D01*
X86485000Y66405000D01*
X86485000Y64280000D01*
X86215000Y64010000D01*
X83965000Y64010000D01*
X83695000Y64280000D01*
D10*
X27305000Y74295000D02*
X27305000Y33655000D01*
X9525000Y33655000D01*
X9525000Y74295000D01*
X27305000Y74295000D01*
D14*
X19685000Y51435000D03*
D10*
X59553889Y51165000D02*
X59553889Y50355000D01*
X59601667Y50260556D01*
X59649445Y50212778D01*
X59743889Y50165000D01*
X59935000Y50165000D01*
X60030556Y50212778D01*
X60077222Y50260556D01*
X60125000Y50355000D01*
X60125000Y51165000D01*
X61096111Y50165000D02*
X60525000Y50165000D01*
X60810556Y50165000D02*
X60810556Y51165000D01*
X60715000Y51021667D01*
X60620556Y50927222D01*
X60525000Y50879444D01*
X22701667Y12411667D02*
X22748333Y12555001D01*
X22796111Y12601667D01*
X22891667Y12649445D01*
X23035000Y12649445D01*
X23129444Y12601667D01*
X23177222Y12555001D01*
X23225000Y12459445D01*
X23225000Y12078334D01*
X22225000Y12078334D01*
X22225000Y12411667D01*
X22272778Y12507223D01*
X22320556Y12555001D01*
X22415000Y12601667D01*
X22510556Y12601667D01*
X22606111Y12555001D01*
X22653889Y12507223D01*
X22701667Y12411667D01*
X22701667Y12078334D01*
X22701667Y13382778D02*
X22748333Y13526112D01*
X22796111Y13572778D01*
X22891667Y13620556D01*
X23035000Y13620556D01*
X23129444Y13572778D01*
X23177222Y13526112D01*
X23225000Y13430556D01*
X23225000Y13049445D01*
X22225000Y13049445D01*
X22225000Y13382778D01*
X22272778Y13478334D01*
X22320556Y13526112D01*
X22415000Y13572778D01*
X22510556Y13572778D01*
X22606111Y13526112D01*
X22653889Y13478334D01*
X22701667Y13382778D01*
X22701667Y13049445D01*
X23225000Y14591667D02*
X23225000Y14020556D01*
X23225000Y14306112D02*
X22225000Y14306112D01*
X22368333Y14210556D01*
X22462778Y14116112D01*
X22510556Y14020556D01*
X39052500Y45833335D02*
X38575833Y45500002D01*
X39052500Y45262224D02*
X38052500Y45262224D01*
X38052500Y45643335D01*
X38100278Y45738891D01*
X38148056Y45785557D01*
X38242500Y45833335D01*
X38385833Y45833335D01*
X38481389Y45785557D01*
X38529167Y45738891D01*
X38575833Y45643335D01*
X38575833Y45262224D01*
X38148056Y46281113D02*
X38100278Y46328891D01*
X38052500Y46423335D01*
X38052500Y46662224D01*
X38100278Y46756668D01*
X38148056Y46804446D01*
X38242500Y46852224D01*
X38338056Y46852224D01*
X38481389Y46804446D01*
X39052500Y46233335D01*
X39052500Y46852224D01*
X38671389Y48052223D02*
X38671389Y48814445D01*
X39052500Y50585555D02*
X39052500Y50014444D01*
X39052500Y50300000D02*
X38052500Y50300000D01*
X38195833Y50204444D01*
X38290278Y50110000D01*
X38338056Y50014444D01*
X38052500Y51223333D02*
X38052500Y51318888D01*
X38100278Y51414444D01*
X38148056Y51462222D01*
X38242500Y51508888D01*
X38433611Y51556666D01*
X38671389Y51556666D01*
X38862500Y51508888D01*
X38956944Y51462222D01*
X39004722Y51414444D01*
X39052500Y51318888D01*
X39052500Y51223333D01*
X39004722Y51128888D01*
X38956944Y51081111D01*
X38862500Y51033333D01*
X38671389Y50985555D01*
X38433611Y50985555D01*
X38242500Y51033333D01*
X38148056Y51081111D01*
X38100278Y51128888D01*
X38052500Y51223333D01*
X39052500Y51956666D02*
X38052500Y51956666D01*
X39052500Y52527777D02*
X38481389Y52099999D01*
X38052500Y52527777D02*
X38623611Y51956666D01*
X31500000Y36932225D02*
X32214444Y36932225D01*
X32356667Y36884447D01*
X32452222Y36788892D01*
X32500000Y36646670D01*
X32500000Y36551114D01*
X32500000Y37903336D02*
X32500000Y37332225D01*
X32500000Y37617781D02*
X31500000Y37617781D01*
X31643333Y37522225D01*
X31737778Y37427781D01*
X31785556Y37332225D01*
X32118889Y39103335D02*
X32118889Y39865557D01*
X32500000Y41636667D02*
X32023333Y41303334D01*
X32500000Y41065556D02*
X31500000Y41065556D01*
X31500000Y41446667D01*
X31547778Y41542223D01*
X31595556Y41588889D01*
X31690000Y41636667D01*
X31833333Y41636667D01*
X31928889Y41588889D01*
X31976667Y41542223D01*
X32023333Y41446667D01*
X32023333Y41065556D01*
X32452222Y42465556D02*
X32500000Y42370000D01*
X32500000Y42180000D01*
X32452222Y42084445D01*
X32356667Y42036667D01*
X31976667Y42036667D01*
X31881111Y42084445D01*
X31833333Y42180000D01*
X31833333Y42370000D01*
X31881111Y42465556D01*
X31976667Y42513334D01*
X32071111Y42513334D01*
X32166667Y42036667D01*
X32452222Y42913334D02*
X32500000Y43008890D01*
X32500000Y43198890D01*
X32452222Y43294445D01*
X32356667Y43342223D01*
X32310000Y43342223D01*
X32214444Y43294445D01*
X32166667Y43198890D01*
X32166667Y43056667D01*
X32118889Y42961112D01*
X32023333Y42913334D01*
X31976667Y42913334D01*
X31881111Y42961112D01*
X31833333Y43056667D01*
X31833333Y43198890D01*
X31881111Y43294445D01*
X32452222Y44171112D02*
X32500000Y44075556D01*
X32500000Y43885556D01*
X32452222Y43790001D01*
X32356667Y43742223D01*
X31976667Y43742223D01*
X31881111Y43790001D01*
X31833333Y43885556D01*
X31833333Y44075556D01*
X31881111Y44171112D01*
X31976667Y44218890D01*
X32071111Y44218890D01*
X32166667Y43742223D01*
X31833333Y44618890D02*
X31833333Y45000001D01*
X31500000Y44762223D02*
X32356667Y44762223D01*
X32452222Y44808890D01*
X32500000Y44904446D01*
X32500000Y45000001D01*
X84771111Y62865000D02*
X84771111Y62150556D01*
X84723333Y62008333D01*
X84627778Y61912778D01*
X84485556Y61865000D01*
X84390000Y61865000D01*
X85218889Y62769444D02*
X85266667Y62817222D01*
X85361111Y62865000D01*
X85600000Y62865000D01*
X85694444Y62817222D01*
X85742222Y62769444D01*
X85790000Y62675000D01*
X85790000Y62579444D01*
X85742222Y62436111D01*
X85171111Y61865000D01*
X85790000Y61865000D01*
X25241667Y63187778D02*
X25288333Y63331112D01*
X25336111Y63377778D01*
X25431667Y63425556D01*
X25575000Y63425556D01*
X25669444Y63377778D01*
X25717222Y63331112D01*
X25765000Y63235556D01*
X25765000Y62854445D01*
X24765000Y62854445D01*
X24765000Y63187778D01*
X24812778Y63283334D01*
X24860556Y63331112D01*
X24955000Y63377778D01*
X25050556Y63377778D01*
X25146111Y63331112D01*
X25193889Y63283334D01*
X25241667Y63187778D01*
X25241667Y62854445D01*
X25241667Y64158889D02*
X25288333Y64302223D01*
X25336111Y64348889D01*
X25431667Y64396667D01*
X25575000Y64396667D01*
X25669444Y64348889D01*
X25717222Y64302223D01*
X25765000Y64206667D01*
X25765000Y63825556D01*
X24765000Y63825556D01*
X24765000Y64158889D01*
X24812778Y64254445D01*
X24860556Y64302223D01*
X24955000Y64348889D01*
X25050556Y64348889D01*
X25146111Y64302223D01*
X25193889Y64254445D01*
X25241667Y64158889D01*
X25241667Y63825556D01*
X24860556Y64844445D02*
X24812778Y64892223D01*
X24765000Y64986667D01*
X24765000Y65225556D01*
X24812778Y65320000D01*
X24860556Y65367778D01*
X24955000Y65415556D01*
X25050556Y65415556D01*
X25193889Y65367778D01*
X25765000Y64796667D01*
X25765000Y65415556D01*
%LPC*%
D15*
X50165000Y52705000D03*
X50165000Y57785000D03*
X50165000Y50165000D03*
X73025000Y32385000D03*
X50165000Y32385000D03*
X73025000Y47625000D03*
X50165000Y55245000D03*
X50165000Y60325000D03*
X73025000Y65405000D03*
X73025000Y62865000D03*
X73025000Y37465000D03*
X50165000Y40005000D03*
X73025000Y42545000D03*
X50165000Y45085000D03*
X73025000Y52705000D03*
X50165000Y37465000D03*
X50165000Y67945000D03*
X73025000Y34925000D03*
X50165000Y47625000D03*
X50165000Y42545000D03*
X50165000Y34925000D03*
X73025000Y55245000D03*
X73025000Y45085000D03*
X73025000Y40005000D03*
X73025000Y67945000D03*
X73025000Y60325000D03*
X73025000Y57785000D03*
X73025000Y50165000D03*
X50165000Y65405000D03*
X50165000Y62865000D03*
D16*
X17145000Y18415000D03*
X22225000Y18415000D03*
X14605000Y18415000D03*
X19685000Y18415000D03*
D17*
X40640000Y52705000D03*
X40640000Y45085000D03*
D18*
X34925000Y41910000D03*
D19*
X34925000Y39370000D03*
D18*
X85090000Y67945000D03*
D19*
X85090000Y65405000D03*
D16*
X22225000Y71755000D03*
X12065000Y71755000D03*
X24765000Y71755000D03*
X19685000Y71755000D03*
X17145000Y36195000D03*
X17145000Y71755000D03*
X19685000Y36195000D03*
X14605000Y71755000D03*
X14605000Y36195000D03*
X22225000Y36195000D03*
G04 --- BOARD END --- *
%TF.MD5,9d4b11e578dfb9a10c7c4c78336bef97*%
M02*
