G04 --- HEADER BEGIN --- *
%TF.GenerationSoftware,LibrePCB,LibrePCB,0.1.4*%
%TF.CreationDate,2020-05-17T22:52:56*%
%TF.ProjectId,Weather-Station-v1 - default,0f98d3d9-bdb5-4b12-bb1d-3210ebaa1a1a,v1*%
%TF.Part,Single*%
%FSLAX66Y66*%
%MOMM*%
G01*
G74*
G04 --- HEADER END --- *
G04 --- APERTURE LIST BEGIN --- *
%ADD10C,0.2*%
%ADD11C,5.28X4.88*%
%ADD12C,0.1524*%
%ADD13C,0.25*%
%ADD14C,14.568408X14.168408*%
%ADD15O,2.7X1.5*%
%ADD16O,1.5X2.7*%
%ADD17P,1.8256X8X112.5*%
%ADD18O,2.39X1.787*%
%ADD19R,2.39X1.787*%
G04 --- APERTURE LIST END --- *
G04 --- BOARD BEGIN --- *
D10*
X47625000Y73025000D02*
X75565000Y73025000D01*
X75565000Y27305000D01*
X47625000Y27305000D01*
X47625000Y73025000D01*
X17145000Y8255000D02*
X17145000Y5715000D01*
X14605000Y5715000D01*
X14605000Y8255000D01*
X17145000Y8255000D01*
X24765000Y20955000D02*
X24765000Y3175000D01*
X12065000Y3175000D01*
X12065000Y20955000D01*
X24765000Y20955000D01*
D11*
X22225000Y5715000D03*
D12*
X39751000Y45720000D02*
X39497000Y45974000D01*
X41783000Y51816000D02*
X41783000Y51435000D01*
X39497000Y45974000D02*
X39497000Y46355000D01*
X41783000Y45974000D02*
X41783000Y46355000D01*
X41656000Y46482000D02*
X41783000Y46355000D01*
X41783000Y51816000D02*
X41529000Y52070000D01*
X41656000Y51308000D02*
X41783000Y51435000D01*
X39624000Y46482000D02*
X39497000Y46355000D01*
X39497000Y51816000D02*
X39751000Y52070000D01*
X39624000Y51308000D02*
X39497000Y51435000D01*
X39497000Y51816000D02*
X39497000Y51435000D01*
X39624000Y51308000D02*
X39624000Y46482000D01*
X41529000Y45720000D02*
X41783000Y45974000D01*
X41656000Y51308000D02*
X41656000Y46482000D01*
D13*
X33530000Y38245000D02*
X33530000Y40370000D01*
X33800000Y40640000D01*
X33530000Y40910000D01*
X33530000Y43035000D01*
X33800000Y43305000D01*
X36050000Y43305000D01*
X36320000Y43035000D01*
X36320000Y40910000D01*
X36050000Y40640000D01*
X36320000Y40370000D01*
X36320000Y38245000D01*
X36050000Y37975000D01*
X33800000Y37975000D01*
X33530000Y38245000D01*
X83695000Y64280000D02*
X83695000Y66405000D01*
X83965000Y66675000D01*
X83695000Y66945000D01*
X83695000Y69070000D01*
X83965000Y69340000D01*
X86215000Y69340000D01*
X86485000Y69070000D01*
X86485000Y66945000D01*
X86215000Y66675000D01*
X86485000Y66405000D01*
X86485000Y64280000D01*
X86215000Y64010000D01*
X83965000Y64010000D01*
X83695000Y64280000D01*
D10*
X27305000Y74295000D02*
X27305000Y33655000D01*
X9525000Y33655000D01*
X9525000Y74295000D01*
X27305000Y74295000D01*
D14*
X19685000Y51435000D03*
D10*
X47625000Y25630000D02*
X47981667Y24130000D01*
X48268333Y25201667D01*
X48553333Y24130000D01*
X48910000Y25630000D01*
X50053333Y24201667D02*
X49910000Y24130000D01*
X49625000Y24130000D01*
X49481667Y24201667D01*
X49410000Y24345000D01*
X49410000Y24915000D01*
X49481667Y25058333D01*
X49625000Y25130000D01*
X49910000Y25130000D01*
X50053333Y25058333D01*
X50125000Y24915000D01*
X50125000Y24773333D01*
X49410000Y24630000D01*
X51340000Y24130000D02*
X51340000Y24915000D01*
X51268333Y25058333D01*
X51125000Y25130000D01*
X50840000Y25130000D01*
X50696667Y25058333D01*
X51340000Y24201667D02*
X51196667Y24130000D01*
X50840000Y24130000D01*
X50696667Y24201667D01*
X50625000Y24345000D01*
X50625000Y24486667D01*
X50696667Y24630000D01*
X50840000Y24701667D01*
X51196667Y24701667D01*
X51340000Y24773333D01*
X51840000Y25130000D02*
X52411667Y25130000D01*
X52055000Y25630000D02*
X52055000Y24345000D01*
X52125000Y24201667D01*
X52268333Y24130000D01*
X52411667Y24130000D01*
X52911667Y24130000D02*
X52911667Y25630000D01*
X53555000Y24130000D02*
X53555000Y24915000D01*
X53483334Y25058333D01*
X53340000Y25130000D01*
X53126667Y25130000D01*
X52983334Y25058333D01*
X52911667Y24986667D01*
X54698333Y24201667D02*
X54555000Y24130000D01*
X54270000Y24130000D01*
X54126667Y24201667D01*
X54055000Y24345000D01*
X54055000Y24915000D01*
X54126667Y25058333D01*
X54270000Y25130000D01*
X54555000Y25130000D01*
X54698333Y25058333D01*
X54770000Y24915000D01*
X54770000Y24773333D01*
X54055000Y24630000D01*
X55270000Y24130000D02*
X55270000Y25130000D01*
X55270000Y24845000D02*
X55341667Y24986667D01*
X55413333Y25058333D01*
X55555000Y25130000D01*
X55698333Y25130000D01*
X56198333Y24701667D02*
X57341666Y24701667D01*
X57841666Y24201667D02*
X58056666Y24130000D01*
X58413333Y24130000D01*
X58556666Y24201667D01*
X58626666Y24273333D01*
X58698333Y24415000D01*
X58698333Y24558333D01*
X58626666Y24701667D01*
X58556666Y24773333D01*
X58413333Y24845000D01*
X58126666Y24915000D01*
X57984999Y24986667D01*
X57913333Y25058333D01*
X57841666Y25201667D01*
X57841666Y25345000D01*
X57913333Y25486667D01*
X57984999Y25558333D01*
X58126666Y25630000D01*
X58484999Y25630000D01*
X58698333Y25558333D01*
X59198333Y25130000D02*
X59770000Y25130000D01*
X59413333Y25630000D02*
X59413333Y24345000D01*
X59483333Y24201667D01*
X59626666Y24130000D01*
X59770000Y24130000D01*
X60985000Y24130000D02*
X60985000Y24915000D01*
X60913333Y25058333D01*
X60770000Y25130000D01*
X60485000Y25130000D01*
X60341667Y25058333D01*
X60985000Y24201667D02*
X60841667Y24130000D01*
X60485000Y24130000D01*
X60341667Y24201667D01*
X60270000Y24345000D01*
X60270000Y24486667D01*
X60341667Y24630000D01*
X60485000Y24701667D01*
X60841667Y24701667D01*
X60985000Y24773333D01*
X61485000Y25130000D02*
X62056667Y25130000D01*
X61700000Y25630000D02*
X61700000Y24345000D01*
X61770000Y24201667D01*
X61913333Y24130000D01*
X62056667Y24130000D01*
X62628334Y24130000D02*
X62628334Y25130000D01*
X62628334Y25630000D02*
X62556667Y25558333D01*
X62628334Y25486667D01*
X62700000Y25558333D01*
X62628334Y25630000D01*
X62628334Y25486667D01*
X63485000Y24130000D02*
X63343333Y24201667D01*
X63271667Y24273333D01*
X63200000Y24415000D01*
X63200000Y24845000D01*
X63271667Y24986667D01*
X63343333Y25058333D01*
X63485000Y25130000D01*
X63700000Y25130000D01*
X63843333Y25058333D01*
X63915000Y24986667D01*
X63985000Y24845000D01*
X63985000Y24415000D01*
X63915000Y24273333D01*
X63843333Y24201667D01*
X63700000Y24130000D01*
X63485000Y24130000D01*
X64485000Y25130000D02*
X64485000Y24130000D01*
X64485000Y24986667D02*
X64556667Y25058333D01*
X64700000Y25130000D01*
X64913333Y25130000D01*
X65056667Y25058333D01*
X65128333Y24915000D01*
X65128333Y24130000D01*
X65628333Y24701667D02*
X66771666Y24701667D01*
X67271666Y25130000D02*
X67628333Y24130000D01*
X67986666Y25130000D01*
X69343333Y24130000D02*
X68486666Y24130000D01*
X68914999Y24130000D02*
X68914999Y25630000D01*
X68771666Y25415000D01*
X68629999Y25273333D01*
X68486666Y25201667D01*
X47625000Y17780000D02*
X47625000Y19280000D01*
X48481667Y17780000D01*
X48481667Y19280000D01*
X49910000Y17923333D02*
X49838334Y17851667D01*
X49625000Y17780000D01*
X49481667Y17780000D01*
X49266667Y17851667D01*
X49125000Y17995000D01*
X49053334Y18136667D01*
X48981667Y18423333D01*
X48981667Y18636667D01*
X49053334Y18923333D01*
X49125000Y19065000D01*
X49266667Y19208333D01*
X49481667Y19280000D01*
X49625000Y19280000D01*
X49838334Y19208333D01*
X49910000Y19136667D01*
X50410000Y18565000D02*
X50910000Y18565000D01*
X51125000Y17780000D02*
X50410000Y17780000D01*
X50410000Y19280000D01*
X51125000Y19280000D01*
X49466667Y78335000D02*
X49466667Y77263333D01*
X49395000Y77050000D01*
X49251667Y76906667D01*
X49038333Y76835000D01*
X48895000Y76835000D01*
X50681667Y76835000D02*
X49966667Y76835000D01*
X49966667Y78335000D01*
X52110000Y76978333D02*
X52038334Y76906667D01*
X51825000Y76835000D01*
X51681667Y76835000D01*
X51466667Y76906667D01*
X51325000Y77050000D01*
X51253334Y77191667D01*
X51181667Y77478333D01*
X51181667Y77691667D01*
X51253334Y77978333D01*
X51325000Y78120000D01*
X51466667Y78263333D01*
X51681667Y78335000D01*
X51825000Y78335000D01*
X52038334Y78263333D01*
X52110000Y78191667D01*
X53181667Y78335000D02*
X53181667Y77263333D01*
X53110000Y77050000D01*
X52966667Y76906667D01*
X52753333Y76835000D01*
X52610000Y76835000D01*
X54396667Y76835000D02*
X53681667Y76835000D01*
X53681667Y78335000D01*
X55825000Y76978333D02*
X55753334Y76906667D01*
X55540000Y76835000D01*
X55396667Y76835000D01*
X55181667Y76906667D01*
X55040000Y77050000D01*
X54968334Y77191667D01*
X54896667Y77478333D01*
X54896667Y77691667D01*
X54968334Y77978333D01*
X55040000Y78120000D01*
X55181667Y78263333D01*
X55396667Y78335000D01*
X55540000Y78335000D01*
X55753334Y78263333D01*
X55825000Y78191667D01*
X56896667Y78335000D02*
X56896667Y77263333D01*
X56825000Y77050000D01*
X56681667Y76906667D01*
X56468333Y76835000D01*
X56325000Y76835000D01*
X58111667Y76835000D02*
X57396667Y76835000D01*
X57396667Y78335000D01*
X59540000Y76978333D02*
X59468334Y76906667D01*
X59255000Y76835000D01*
X59111667Y76835000D01*
X58896667Y76906667D01*
X58755000Y77050000D01*
X58683334Y77191667D01*
X58611667Y77478333D01*
X58611667Y77691667D01*
X58683334Y77978333D01*
X58755000Y78120000D01*
X58896667Y78263333D01*
X59111667Y78335000D01*
X59255000Y78335000D01*
X59468334Y78263333D01*
X59540000Y78191667D01*
X60611667Y78335000D02*
X60611667Y77263333D01*
X60540000Y77050000D01*
X60396667Y76906667D01*
X60183333Y76835000D01*
X60040000Y76835000D01*
X61826667Y76835000D02*
X61111667Y76835000D01*
X61111667Y78335000D01*
X63255000Y76978333D02*
X63183334Y76906667D01*
X62970000Y76835000D01*
X62826667Y76835000D01*
X62611667Y76906667D01*
X62470000Y77050000D01*
X62398334Y77191667D01*
X62326667Y77478333D01*
X62326667Y77691667D01*
X62398334Y77978333D01*
X62470000Y78120000D01*
X62611667Y78263333D01*
X62826667Y78335000D01*
X62970000Y78335000D01*
X63183334Y78263333D01*
X63255000Y78191667D01*
X30773333Y14784993D02*
X30701667Y14713327D01*
X30488333Y14641660D01*
X30345000Y14641660D01*
X30130000Y14713327D01*
X29988333Y14856660D01*
X29916667Y14998327D01*
X29845000Y15284993D01*
X29845000Y15498327D01*
X29916667Y15784993D01*
X29988333Y15926660D01*
X30130000Y16069993D01*
X30345000Y16141660D01*
X30488333Y16141660D01*
X30701667Y16069993D01*
X30773333Y15998327D01*
X31488333Y14641660D02*
X31345000Y14713327D01*
X31273333Y14856660D01*
X31273333Y16141660D01*
X32273333Y14641660D02*
X32131666Y14713327D01*
X32060000Y14784993D01*
X31988333Y14926660D01*
X31988333Y15356660D01*
X32060000Y15498327D01*
X32131666Y15569993D01*
X32273333Y15641660D01*
X32488333Y15641660D01*
X32631666Y15569993D01*
X32703333Y15498327D01*
X32773333Y15356660D01*
X32773333Y14926660D01*
X32703333Y14784993D01*
X32631666Y14713327D01*
X32488333Y14641660D01*
X32273333Y14641660D01*
X33273333Y14713327D02*
X33416666Y14641660D01*
X33701666Y14641660D01*
X33845000Y14713327D01*
X33916666Y14856660D01*
X33916666Y14926660D01*
X33845000Y15069993D01*
X33701666Y15141660D01*
X33488333Y15141660D01*
X33345000Y15213327D01*
X33273333Y15356660D01*
X33273333Y15426660D01*
X33345000Y15569993D01*
X33488333Y15641660D01*
X33701666Y15641660D01*
X33845000Y15569993D01*
X35059999Y14713327D02*
X34916666Y14641660D01*
X34631666Y14641660D01*
X34488333Y14713327D01*
X34416666Y14856660D01*
X34416666Y15426660D01*
X34488333Y15569993D01*
X34631666Y15641660D01*
X34916666Y15641660D01*
X35059999Y15569993D01*
X35131666Y15426660D01*
X35131666Y15284993D01*
X34416666Y15141660D01*
X37303332Y16141660D02*
X37303332Y15069993D01*
X37231665Y14856660D01*
X37088332Y14713327D01*
X36874998Y14641660D01*
X36731665Y14641660D01*
X38659999Y14641660D02*
X37803332Y14641660D01*
X38231665Y14641660D02*
X38231665Y16141660D01*
X38088332Y15926660D01*
X37946665Y15784993D01*
X37803332Y15713327D01*
X40974998Y14641660D02*
X40974998Y15426660D01*
X40903331Y15569993D01*
X40759998Y15641660D01*
X40474998Y15641660D01*
X40331665Y15569993D01*
X40974998Y14713327D02*
X40831665Y14641660D01*
X40474998Y14641660D01*
X40331665Y14713327D01*
X40259998Y14856660D01*
X40259998Y14998327D01*
X40331665Y15141660D01*
X40474998Y15213327D01*
X40831665Y15213327D01*
X40974998Y15284993D01*
X41474998Y15641660D02*
X41474998Y14641660D01*
X41474998Y15498327D02*
X41546665Y15569993D01*
X41689998Y15641660D01*
X41903331Y15641660D01*
X42046665Y15569993D01*
X42118331Y15426660D01*
X42118331Y14641660D01*
X43333331Y14641660D02*
X43333331Y16141660D01*
X43333331Y14713327D02*
X43189998Y14641660D01*
X42903331Y14641660D01*
X42761664Y14713327D01*
X42689998Y14784993D01*
X42618331Y14926660D01*
X42618331Y15356660D01*
X42689998Y15498327D01*
X42761664Y15569993D01*
X42903331Y15641660D01*
X43189998Y15641660D01*
X43333331Y15569993D01*
X44933330Y15641660D02*
X44933330Y14141660D01*
X44933330Y15569993D02*
X45076663Y15641660D01*
X45361663Y15641660D01*
X45504997Y15569993D01*
X45576663Y15498327D01*
X45648330Y15356660D01*
X45648330Y14926660D01*
X45576663Y14784993D01*
X45504997Y14713327D01*
X45361663Y14641660D01*
X45076663Y14641660D01*
X44933330Y14713327D01*
X46433330Y14641660D02*
X46291663Y14713327D01*
X46219997Y14784993D01*
X46148330Y14926660D01*
X46148330Y15356660D01*
X46219997Y15498327D01*
X46291663Y15569993D01*
X46433330Y15641660D01*
X46648330Y15641660D01*
X46791663Y15569993D01*
X46863330Y15498327D01*
X46933330Y15356660D01*
X46933330Y14926660D01*
X46863330Y14784993D01*
X46791663Y14713327D01*
X46648330Y14641660D01*
X46433330Y14641660D01*
X47433330Y15641660D02*
X47718330Y14641660D01*
X48004997Y15356660D01*
X48289997Y14641660D01*
X48576663Y15641660D01*
X49719996Y14713327D02*
X49576663Y14641660D01*
X49291663Y14641660D01*
X49148330Y14713327D01*
X49076663Y14856660D01*
X49076663Y15426660D01*
X49148330Y15569993D01*
X49291663Y15641660D01*
X49576663Y15641660D01*
X49719996Y15569993D01*
X49791663Y15426660D01*
X49791663Y15284993D01*
X49076663Y15141660D01*
X50291663Y14641660D02*
X50291663Y15641660D01*
X50291663Y15356660D02*
X50363330Y15498327D01*
X50434996Y15569993D01*
X50576663Y15641660D01*
X50719996Y15641660D01*
X52604995Y14641660D02*
X52463328Y14713327D01*
X52391662Y14784993D01*
X52319995Y14926660D01*
X52319995Y15356660D01*
X52391662Y15498327D01*
X52463328Y15569993D01*
X52604995Y15641660D01*
X52819995Y15641660D01*
X52963328Y15569993D01*
X53034995Y15498327D01*
X53104995Y15356660D01*
X53104995Y14926660D01*
X53034995Y14784993D01*
X52963328Y14713327D01*
X52819995Y14641660D01*
X52604995Y14641660D01*
X53604995Y15641660D02*
X53604995Y14641660D01*
X53604995Y15498327D02*
X53676662Y15569993D01*
X53819995Y15641660D01*
X54033328Y15641660D01*
X54176662Y15569993D01*
X54248328Y15426660D01*
X54248328Y14641660D01*
X55848327Y15641660D02*
X56419994Y15641660D01*
X56063327Y16141660D02*
X56063327Y14856660D01*
X56133327Y14713327D01*
X56276660Y14641660D01*
X56419994Y14641660D01*
X57204994Y14641660D02*
X57063327Y14713327D01*
X56991661Y14784993D01*
X56919994Y14926660D01*
X56919994Y15356660D01*
X56991661Y15498327D01*
X57063327Y15569993D01*
X57204994Y15641660D01*
X57419994Y15641660D01*
X57563327Y15569993D01*
X57634994Y15498327D01*
X57704994Y15356660D01*
X57704994Y14926660D01*
X57634994Y14784993D01*
X57563327Y14713327D01*
X57419994Y14641660D01*
X57204994Y14641660D01*
X59304993Y14641660D02*
X59304993Y15641660D01*
X59304993Y15356660D02*
X59376660Y15498327D01*
X59448326Y15569993D01*
X59589993Y15641660D01*
X59733326Y15641660D01*
X60876659Y14713327D02*
X60733326Y14641660D01*
X60448326Y14641660D01*
X60304993Y14713327D01*
X60233326Y14856660D01*
X60233326Y15426660D01*
X60304993Y15569993D01*
X60448326Y15641660D01*
X60733326Y15641660D01*
X60876659Y15569993D01*
X60948326Y15426660D01*
X60948326Y15284993D01*
X60233326Y15141660D01*
X61448326Y14713327D02*
X61591659Y14641660D01*
X61876659Y14641660D01*
X62019993Y14713327D01*
X62091659Y14856660D01*
X62091659Y14926660D01*
X62019993Y15069993D01*
X61876659Y15141660D01*
X61663326Y15141660D01*
X61519993Y15213327D01*
X61448326Y15356660D01*
X61448326Y15426660D01*
X61519993Y15569993D01*
X61663326Y15641660D01*
X61876659Y15641660D01*
X62019993Y15569993D01*
X63234992Y14713327D02*
X63091659Y14641660D01*
X62806659Y14641660D01*
X62663326Y14713327D01*
X62591659Y14856660D01*
X62591659Y15426660D01*
X62663326Y15569993D01*
X62806659Y15641660D01*
X63091659Y15641660D01*
X63234992Y15569993D01*
X63306659Y15426660D01*
X63306659Y15284993D01*
X62591659Y15141660D01*
X63806659Y15641660D02*
X64378326Y15641660D01*
X64021659Y16141660D02*
X64021659Y14856660D01*
X64091659Y14713327D01*
X64234992Y14641660D01*
X64378326Y14641660D01*
X65978325Y14641660D02*
X65978325Y15641660D01*
X65978325Y15498327D02*
X66049992Y15569993D01*
X66193325Y15641660D01*
X66406658Y15641660D01*
X66549992Y15569993D01*
X66621658Y15426660D01*
X66621658Y14641660D01*
X66621658Y15426660D02*
X66693325Y15569993D01*
X66834992Y15641660D01*
X67049992Y15641660D01*
X67193325Y15569993D01*
X67263325Y15426660D01*
X67263325Y14641660D01*
X68406658Y14713327D02*
X68263325Y14641660D01*
X67978325Y14641660D01*
X67834992Y14713327D01*
X67763325Y14856660D01*
X67763325Y15426660D01*
X67834992Y15569993D01*
X67978325Y15641660D01*
X68263325Y15641660D01*
X68406658Y15569993D01*
X68478325Y15426660D01*
X68478325Y15284993D01*
X67763325Y15141660D01*
X68978325Y14641660D02*
X68978325Y15641660D01*
X68978325Y15498327D02*
X69049992Y15569993D01*
X69193325Y15641660D01*
X69406658Y15641660D01*
X69549992Y15569993D01*
X69621658Y15426660D01*
X69621658Y14641660D01*
X69621658Y15426660D02*
X69693325Y15569993D01*
X69834992Y15641660D01*
X70049992Y15641660D01*
X70193325Y15569993D01*
X70263325Y15426660D01*
X70263325Y14641660D01*
X71048325Y14641660D02*
X70906658Y14713327D01*
X70834992Y14784993D01*
X70763325Y14926660D01*
X70763325Y15356660D01*
X70834992Y15498327D01*
X70906658Y15569993D01*
X71048325Y15641660D01*
X71263325Y15641660D01*
X71406658Y15569993D01*
X71478325Y15498327D01*
X71548325Y15356660D01*
X71548325Y14926660D01*
X71478325Y14784993D01*
X71406658Y14713327D01*
X71263325Y14641660D01*
X71048325Y14641660D01*
X72048325Y14641660D02*
X72048325Y15641660D01*
X72048325Y15356660D02*
X72119992Y15498327D01*
X72191658Y15569993D01*
X72333325Y15641660D01*
X72476658Y15641660D01*
X72976658Y15641660D02*
X73333325Y14641660D01*
X73691658Y15641660D02*
X73333325Y14641660D01*
X73191658Y14284993D01*
X73119991Y14213327D01*
X72976658Y14141660D01*
X74263325Y14784993D02*
X74334991Y14713327D01*
X74263325Y14641660D01*
X74191658Y14713327D01*
X74263325Y14784993D01*
X74263325Y14641660D01*
X77749989Y14641660D02*
X77034989Y14641660D01*
X77034989Y16141660D01*
X78249989Y15426660D02*
X78749989Y15426660D01*
X78964989Y14641660D02*
X78249989Y14641660D01*
X78249989Y16141660D01*
X78964989Y16141660D01*
X79464989Y14641660D02*
X79464989Y16141660D01*
X79821656Y16141660D01*
X80036656Y16069993D01*
X80179989Y15926660D01*
X80249989Y15784993D01*
X80321656Y15498327D01*
X80321656Y15284993D01*
X80249989Y14998327D01*
X80179989Y14856660D01*
X80036656Y14713327D01*
X79821656Y14641660D01*
X79464989Y14641660D01*
X81921655Y15641660D02*
X82206655Y14641660D01*
X82493322Y15356660D01*
X82778322Y14641660D01*
X83064988Y15641660D01*
X83636655Y14641660D02*
X83636655Y15641660D01*
X83636655Y16141660D02*
X83564988Y16069993D01*
X83636655Y15998327D01*
X83708321Y16069993D01*
X83636655Y16141660D01*
X83636655Y15998327D01*
X84423321Y14641660D02*
X84279988Y14713327D01*
X84208321Y14856660D01*
X84208321Y16141660D01*
X85138321Y14641660D02*
X84994988Y14713327D01*
X84923321Y14856660D01*
X84923321Y16141660D01*
X30944999Y12774995D02*
X31516666Y12774995D01*
X31159999Y11774995D02*
X31159999Y13059995D01*
X31229999Y13203328D01*
X31373332Y13274995D01*
X31516666Y13274995D01*
X32231666Y11774995D02*
X32088333Y11846662D01*
X32016666Y11989995D01*
X32016666Y13274995D01*
X33446666Y11774995D02*
X33446666Y12559995D01*
X33374999Y12703328D01*
X33231666Y12774995D01*
X32946666Y12774995D01*
X32803333Y12703328D01*
X33446666Y11846662D02*
X33303333Y11774995D01*
X32946666Y11774995D01*
X32803333Y11846662D01*
X32731666Y11989995D01*
X32731666Y12131662D01*
X32803333Y12274995D01*
X32946666Y12346662D01*
X33303333Y12346662D01*
X33446666Y12418328D01*
X33946666Y11846662D02*
X34089999Y11774995D01*
X34374999Y11774995D01*
X34518333Y11846662D01*
X34589999Y11989995D01*
X34589999Y12059995D01*
X34518333Y12203328D01*
X34374999Y12274995D01*
X34161666Y12274995D01*
X34018333Y12346662D01*
X33946666Y12489995D01*
X33946666Y12559995D01*
X34018333Y12703328D01*
X34161666Y12774995D01*
X34374999Y12774995D01*
X34518333Y12703328D01*
X35089999Y11774995D02*
X35089999Y13274995D01*
X35733332Y11774995D02*
X35733332Y12559995D01*
X35661666Y12703328D01*
X35518332Y12774995D01*
X35304999Y12774995D01*
X35161666Y12703328D01*
X35089999Y12631662D01*
X37333331Y12774995D02*
X37618331Y11774995D01*
X37904998Y12489995D01*
X38189998Y11774995D01*
X38476664Y12774995D01*
X38976664Y11774995D02*
X38976664Y13274995D01*
X39619997Y11774995D02*
X39619997Y12559995D01*
X39548331Y12703328D01*
X39404997Y12774995D01*
X39191664Y12774995D01*
X39048331Y12703328D01*
X38976664Y12631662D01*
X40763330Y11846662D02*
X40619997Y11774995D01*
X40334997Y11774995D01*
X40191664Y11846662D01*
X40119997Y11989995D01*
X40119997Y12559995D01*
X40191664Y12703328D01*
X40334997Y12774995D01*
X40619997Y12774995D01*
X40763330Y12703328D01*
X40834997Y12559995D01*
X40834997Y12418328D01*
X40119997Y12274995D01*
X41334997Y12774995D02*
X41334997Y11774995D01*
X41334997Y12631662D02*
X41406664Y12703328D01*
X41549997Y12774995D01*
X41763330Y12774995D01*
X41906664Y12703328D01*
X41978330Y12559995D01*
X41978330Y11774995D01*
X44293329Y11846662D02*
X44149996Y11774995D01*
X43863329Y11774995D01*
X43721662Y11846662D01*
X43649996Y11918328D01*
X43578329Y12059995D01*
X43578329Y12489995D01*
X43649996Y12631662D01*
X43721662Y12703328D01*
X43863329Y12774995D01*
X44149996Y12774995D01*
X44293329Y12703328D01*
X45078329Y11774995D02*
X44936662Y11846662D01*
X44864996Y11918328D01*
X44793329Y12059995D01*
X44793329Y12489995D01*
X44864996Y12631662D01*
X44936662Y12703328D01*
X45078329Y12774995D01*
X45293329Y12774995D01*
X45436662Y12703328D01*
X45508329Y12631662D01*
X45578329Y12489995D01*
X45578329Y12059995D01*
X45508329Y11918328D01*
X45436662Y11846662D01*
X45293329Y11774995D01*
X45078329Y11774995D01*
X46078329Y11774995D02*
X46078329Y12774995D01*
X46078329Y12631662D02*
X46149996Y12703328D01*
X46293329Y12774995D01*
X46506662Y12774995D01*
X46649996Y12703328D01*
X46721662Y12559995D01*
X46721662Y11774995D01*
X46721662Y12559995D02*
X46793329Y12703328D01*
X46934996Y12774995D01*
X47149996Y12774995D01*
X47293329Y12703328D01*
X47363329Y12559995D01*
X47363329Y11774995D01*
X47863329Y12774995D02*
X47863329Y11274995D01*
X47863329Y12703328D02*
X48006662Y12774995D01*
X48291662Y12774995D01*
X48434996Y12703328D01*
X48506662Y12631662D01*
X48578329Y12489995D01*
X48578329Y12059995D01*
X48506662Y11918328D01*
X48434996Y11846662D01*
X48291662Y11774995D01*
X48006662Y11774995D01*
X47863329Y11846662D01*
X49293329Y11774995D02*
X49149996Y11846662D01*
X49078329Y11989995D01*
X49078329Y13274995D01*
X50436662Y11846662D02*
X50293329Y11774995D01*
X50008329Y11774995D01*
X49864996Y11846662D01*
X49793329Y11989995D01*
X49793329Y12559995D01*
X49864996Y12703328D01*
X50008329Y12774995D01*
X50293329Y12774995D01*
X50436662Y12703328D01*
X50508329Y12559995D01*
X50508329Y12418328D01*
X49793329Y12274995D01*
X51008329Y12774995D02*
X51579996Y12774995D01*
X51223329Y13274995D02*
X51223329Y11989995D01*
X51293329Y11846662D01*
X51436662Y11774995D01*
X51579996Y11774995D01*
X52723329Y11846662D02*
X52579996Y11774995D01*
X52294996Y11774995D01*
X52151663Y11846662D01*
X52079996Y11989995D01*
X52079996Y12559995D01*
X52151663Y12703328D01*
X52294996Y12774995D01*
X52579996Y12774995D01*
X52723329Y12703328D01*
X52794996Y12559995D01*
X52794996Y12418328D01*
X52079996Y12274995D01*
X53366663Y11918328D02*
X53438329Y11846662D01*
X53366663Y11774995D01*
X53294996Y11846662D01*
X53366663Y11918328D01*
X53366663Y11774995D01*
X56994994Y11774995D02*
X56494994Y12489995D01*
X56138327Y11774995D02*
X56138327Y13274995D01*
X56709994Y13274995D01*
X56853327Y13203328D01*
X56923327Y13131662D01*
X56994994Y12989995D01*
X56994994Y12774995D01*
X56923327Y12631662D01*
X56853327Y12559995D01*
X56709994Y12489995D01*
X56138327Y12489995D01*
X58138327Y11846662D02*
X57994994Y11774995D01*
X57709994Y11774995D01*
X57566661Y11846662D01*
X57494994Y11989995D01*
X57494994Y12559995D01*
X57566661Y12703328D01*
X57709994Y12774995D01*
X57994994Y12774995D01*
X58138327Y12703328D01*
X58209994Y12559995D01*
X58209994Y12418328D01*
X57494994Y12274995D01*
X58709994Y11774995D02*
X58709994Y12774995D01*
X58709994Y12631662D02*
X58781661Y12703328D01*
X58924994Y12774995D01*
X59138327Y12774995D01*
X59281661Y12703328D01*
X59353327Y12559995D01*
X59353327Y11774995D01*
X59353327Y12559995D02*
X59424994Y12703328D01*
X59566661Y12774995D01*
X59781661Y12774995D01*
X59924994Y12703328D01*
X59994994Y12559995D01*
X59994994Y11774995D01*
X60779994Y11774995D02*
X60638327Y11846662D01*
X60566661Y11918328D01*
X60494994Y12059995D01*
X60494994Y12489995D01*
X60566661Y12631662D01*
X60638327Y12703328D01*
X60779994Y12774995D01*
X60994994Y12774995D01*
X61138327Y12703328D01*
X61209994Y12631662D01*
X61279994Y12489995D01*
X61279994Y12059995D01*
X61209994Y11918328D01*
X61138327Y11846662D01*
X60994994Y11774995D01*
X60779994Y11774995D01*
X61779994Y12774995D02*
X62136661Y11774995D01*
X62494994Y12774995D01*
X63638327Y11846662D02*
X63494994Y11774995D01*
X63209994Y11774995D01*
X63066661Y11846662D01*
X62994994Y11989995D01*
X62994994Y12559995D01*
X63066661Y12703328D01*
X63209994Y12774995D01*
X63494994Y12774995D01*
X63638327Y12703328D01*
X63709994Y12559995D01*
X63709994Y12418328D01*
X62994994Y12274995D01*
X65594993Y12774995D02*
X65594993Y11489995D01*
X65524993Y11346662D01*
X65381660Y11274995D01*
X65309993Y11274995D01*
X65594993Y13274995D02*
X65524993Y13203328D01*
X65594993Y13131662D01*
X65666660Y13203328D01*
X65594993Y13274995D01*
X65594993Y13131662D01*
X66809993Y12774995D02*
X66809993Y11774995D01*
X66166660Y12774995D02*
X66166660Y11989995D01*
X66238327Y11846662D01*
X66381660Y11774995D01*
X66594993Y11774995D01*
X66738327Y11846662D01*
X66809993Y11918328D01*
X67309993Y11774995D02*
X67309993Y12774995D01*
X67309993Y12631662D02*
X67381660Y12703328D01*
X67524993Y12774995D01*
X67738326Y12774995D01*
X67881660Y12703328D01*
X67953326Y12559995D01*
X67953326Y11774995D01*
X67953326Y12559995D02*
X68024993Y12703328D01*
X68166660Y12774995D01*
X68381660Y12774995D01*
X68524993Y12703328D01*
X68594993Y12559995D01*
X68594993Y11774995D01*
X69094993Y12774995D02*
X69094993Y11274995D01*
X69094993Y12703328D02*
X69238326Y12774995D01*
X69523326Y12774995D01*
X69666660Y12703328D01*
X69738326Y12631662D01*
X69809993Y12489995D01*
X69809993Y12059995D01*
X69738326Y11918328D01*
X69666660Y11846662D01*
X69523326Y11774995D01*
X69238326Y11774995D01*
X69094993Y11846662D01*
X70953326Y11846662D02*
X70809993Y11774995D01*
X70524993Y11774995D01*
X70381660Y11846662D01*
X70309993Y11989995D01*
X70309993Y12559995D01*
X70381660Y12703328D01*
X70524993Y12774995D01*
X70809993Y12774995D01*
X70953326Y12703328D01*
X71024993Y12559995D01*
X71024993Y12418328D01*
X70309993Y12274995D01*
X71524993Y11774995D02*
X71524993Y12774995D01*
X71524993Y12489995D02*
X71596660Y12631662D01*
X71668326Y12703328D01*
X71809993Y12774995D01*
X71953326Y12774995D01*
X74268325Y11774995D02*
X74268325Y12559995D01*
X74196658Y12703328D01*
X74053325Y12774995D01*
X73768325Y12774995D01*
X73624992Y12703328D01*
X74268325Y11846662D02*
X74124992Y11774995D01*
X73768325Y11774995D01*
X73624992Y11846662D01*
X73553325Y11989995D01*
X73553325Y12131662D01*
X73624992Y12274995D01*
X73768325Y12346662D01*
X74124992Y12346662D01*
X74268325Y12418328D01*
X74768325Y12774995D02*
X74768325Y11774995D01*
X74768325Y12631662D02*
X74839992Y12703328D01*
X74983325Y12774995D01*
X75196658Y12774995D01*
X75339992Y12703328D01*
X75411658Y12559995D01*
X75411658Y11774995D01*
X76626658Y11774995D02*
X76626658Y13274995D01*
X76626658Y11846662D02*
X76483325Y11774995D01*
X76196658Y11774995D01*
X76054991Y11846662D01*
X75983325Y11918328D01*
X75911658Y12059995D01*
X75911658Y12489995D01*
X75983325Y12631662D01*
X76054991Y12703328D01*
X76196658Y12774995D01*
X76483325Y12774995D01*
X76626658Y12703328D01*
X30944999Y8908330D02*
X30944999Y9908330D01*
X30944999Y9623330D02*
X31016666Y9764997D01*
X31088332Y9836663D01*
X31229999Y9908330D01*
X31373332Y9908330D01*
X32516665Y8979997D02*
X32373332Y8908330D01*
X32088332Y8908330D01*
X31944999Y8979997D01*
X31873332Y9123330D01*
X31873332Y9693330D01*
X31944999Y9836663D01*
X32088332Y9908330D01*
X32373332Y9908330D01*
X32516665Y9836663D01*
X32588332Y9693330D01*
X32588332Y9551663D01*
X31873332Y9408330D01*
X33088332Y8979997D02*
X33231665Y8908330D01*
X33516665Y8908330D01*
X33659999Y8979997D01*
X33731665Y9123330D01*
X33731665Y9193330D01*
X33659999Y9336663D01*
X33516665Y9408330D01*
X33303332Y9408330D01*
X33159999Y9479997D01*
X33088332Y9623330D01*
X33088332Y9693330D01*
X33159999Y9836663D01*
X33303332Y9908330D01*
X33516665Y9908330D01*
X33659999Y9836663D01*
X34874998Y8979997D02*
X34731665Y8908330D01*
X34446665Y8908330D01*
X34303332Y8979997D01*
X34231665Y9123330D01*
X34231665Y9693330D01*
X34303332Y9836663D01*
X34446665Y9908330D01*
X34731665Y9908330D01*
X34874998Y9836663D01*
X34946665Y9693330D01*
X34946665Y9551663D01*
X34231665Y9408330D01*
X35446665Y9908330D02*
X36018332Y9908330D01*
X35661665Y10408330D02*
X35661665Y9123330D01*
X35731665Y8979997D01*
X35874998Y8908330D01*
X36018332Y8908330D01*
X36589999Y9051663D02*
X36661665Y8979997D01*
X36589999Y8908330D01*
X36518332Y8979997D01*
X36589999Y9051663D01*
X36589999Y8908330D01*
X40076663Y8908330D02*
X39361663Y8908330D01*
X39361663Y10408330D01*
X40576663Y9693330D02*
X41076663Y9693330D01*
X41291663Y8908330D02*
X40576663Y8908330D01*
X40576663Y10408330D01*
X41291663Y10408330D01*
X41791663Y8908330D02*
X41791663Y10408330D01*
X42148330Y10408330D01*
X42363330Y10336663D01*
X42506663Y10193330D01*
X42576663Y10051663D01*
X42648330Y9764997D01*
X42648330Y9551663D01*
X42576663Y9264997D01*
X42506663Y9123330D01*
X42363330Y8979997D01*
X42148330Y8908330D01*
X41791663Y8908330D01*
X44963329Y8908330D02*
X44963329Y9693330D01*
X44891662Y9836663D01*
X44748329Y9908330D01*
X44463329Y9908330D01*
X44319996Y9836663D01*
X44963329Y8979997D02*
X44819996Y8908330D01*
X44463329Y8908330D01*
X44319996Y8979997D01*
X44248329Y9123330D01*
X44248329Y9264997D01*
X44319996Y9408330D01*
X44463329Y9479997D01*
X44819996Y9479997D01*
X44963329Y9551663D01*
X45678329Y8908330D02*
X45534996Y8979997D01*
X45463329Y9123330D01*
X45463329Y10408330D01*
X46178329Y9908330D02*
X46749996Y9908330D01*
X46393329Y10408330D02*
X46393329Y9123330D01*
X46463329Y8979997D01*
X46606662Y8908330D01*
X46749996Y8908330D01*
X47893329Y8979997D02*
X47749996Y8908330D01*
X47464996Y8908330D01*
X47321663Y8979997D01*
X47249996Y9123330D01*
X47249996Y9693330D01*
X47321663Y9836663D01*
X47464996Y9908330D01*
X47749996Y9908330D01*
X47893329Y9836663D01*
X47964996Y9693330D01*
X47964996Y9551663D01*
X47249996Y9408330D01*
X48464996Y8908330D02*
X48464996Y9908330D01*
X48464996Y9623330D02*
X48536663Y9764997D01*
X48608329Y9836663D01*
X48749996Y9908330D01*
X48893329Y9908330D01*
X49393329Y9908330D02*
X49393329Y8908330D01*
X49393329Y9764997D02*
X49464996Y9836663D01*
X49608329Y9908330D01*
X49821662Y9908330D01*
X49964996Y9836663D01*
X50036662Y9693330D01*
X50036662Y8908330D01*
X51251662Y8908330D02*
X51251662Y9693330D01*
X51179995Y9836663D01*
X51036662Y9908330D01*
X50751662Y9908330D01*
X50608329Y9836663D01*
X51251662Y8979997D02*
X51108329Y8908330D01*
X50751662Y8908330D01*
X50608329Y8979997D01*
X50536662Y9123330D01*
X50536662Y9264997D01*
X50608329Y9408330D01*
X50751662Y9479997D01*
X51108329Y9479997D01*
X51251662Y9551663D01*
X51751662Y9908330D02*
X52323329Y9908330D01*
X51966662Y10408330D02*
X51966662Y9123330D01*
X52036662Y8979997D01*
X52179995Y8908330D01*
X52323329Y8908330D01*
X53466662Y8979997D02*
X53323329Y8908330D01*
X53038329Y8908330D01*
X52894996Y8979997D01*
X52823329Y9123330D01*
X52823329Y9693330D01*
X52894996Y9836663D01*
X53038329Y9908330D01*
X53323329Y9908330D01*
X53466662Y9836663D01*
X53538329Y9693330D01*
X53538329Y9551663D01*
X52823329Y9408330D01*
X55781661Y9908330D02*
X55781661Y8908330D01*
X55138328Y9908330D02*
X55138328Y9123330D01*
X55209995Y8979997D01*
X55353328Y8908330D01*
X55566661Y8908330D01*
X55709995Y8979997D01*
X55781661Y9051663D01*
X56281661Y9908330D02*
X56281661Y8408330D01*
X56281661Y9836663D02*
X56424994Y9908330D01*
X56709994Y9908330D01*
X56853328Y9836663D01*
X56924994Y9764997D01*
X56996661Y9623330D01*
X56996661Y9193330D01*
X56924994Y9051663D01*
X56853328Y8979997D01*
X56709994Y8908330D01*
X56424994Y8908330D01*
X56281661Y8979997D01*
X57781661Y8908330D02*
X57639994Y8979997D01*
X57568328Y9051663D01*
X57496661Y9193330D01*
X57496661Y9623330D01*
X57568328Y9764997D01*
X57639994Y9836663D01*
X57781661Y9908330D01*
X57996661Y9908330D01*
X58139994Y9836663D01*
X58211661Y9764997D01*
X58281661Y9623330D01*
X58281661Y9193330D01*
X58211661Y9051663D01*
X58139994Y8979997D01*
X57996661Y8908330D01*
X57781661Y8908330D01*
X58781661Y9908330D02*
X58781661Y8908330D01*
X58781661Y9764997D02*
X58853328Y9836663D01*
X58996661Y9908330D01*
X59209994Y9908330D01*
X59353328Y9836663D01*
X59424994Y9693330D01*
X59424994Y8908330D01*
X61524993Y9693330D02*
X61739993Y9623330D01*
X61809993Y9551663D01*
X61881660Y9408330D01*
X61881660Y9193330D01*
X61809993Y9051663D01*
X61739993Y8979997D01*
X61596660Y8908330D01*
X61024993Y8908330D01*
X61024993Y10408330D01*
X61524993Y10408330D01*
X61668326Y10336663D01*
X61739993Y10264997D01*
X61809993Y10123330D01*
X61809993Y9979997D01*
X61739993Y9836663D01*
X61668326Y9764997D01*
X61524993Y9693330D01*
X61024993Y9693330D01*
X62381660Y8908330D02*
X62381660Y10408330D01*
X62881660Y9336663D01*
X63381660Y10408330D01*
X63381660Y8908330D01*
X63881660Y9693330D02*
X64381660Y9693330D01*
X64596660Y8908330D02*
X63881660Y8908330D01*
X63881660Y10408330D01*
X64596660Y10408330D01*
X65168327Y10264997D02*
X65239993Y10336663D01*
X65381660Y10408330D01*
X65739993Y10408330D01*
X65881660Y10336663D01*
X65953327Y10264997D01*
X66024993Y10123330D01*
X66024993Y9979997D01*
X65953327Y9764997D01*
X65096660Y8908330D01*
X66024993Y8908330D01*
X66809993Y9764997D02*
X66668326Y9836663D01*
X66596660Y9908330D01*
X66524993Y10051663D01*
X66524993Y10123330D01*
X66596660Y10264997D01*
X66668326Y10336663D01*
X66809993Y10408330D01*
X67096660Y10408330D01*
X67239993Y10336663D01*
X67309993Y10264997D01*
X67381660Y10123330D01*
X67381660Y10051663D01*
X67309993Y9908330D01*
X67239993Y9836663D01*
X67096660Y9764997D01*
X66809993Y9764997D01*
X66668326Y9693330D01*
X66596660Y9623330D01*
X66524993Y9479997D01*
X66524993Y9193330D01*
X66596660Y9051663D01*
X66668326Y8979997D01*
X66809993Y8908330D01*
X67096660Y8908330D01*
X67239993Y8979997D01*
X67309993Y9051663D01*
X67381660Y9193330D01*
X67381660Y9479997D01*
X67309993Y9623330D01*
X67239993Y9693330D01*
X67096660Y9764997D01*
X68238327Y10408330D02*
X68381660Y10408330D01*
X68524993Y10336663D01*
X68596660Y10264997D01*
X68666660Y10123330D01*
X68738327Y9836663D01*
X68738327Y9479997D01*
X68666660Y9193330D01*
X68596660Y9051663D01*
X68524993Y8979997D01*
X68381660Y8908330D01*
X68238327Y8908330D01*
X68096660Y8979997D01*
X68024993Y9051663D01*
X67953327Y9193330D01*
X67881660Y9479997D01*
X67881660Y9836663D01*
X67953327Y10123330D01*
X68024993Y10264997D01*
X68096660Y10336663D01*
X68238327Y10408330D01*
X31659999Y6113332D02*
X31516666Y6041665D01*
X31229999Y6041665D01*
X31088332Y6113332D01*
X31016666Y6184998D01*
X30944999Y6326665D01*
X30944999Y6756665D01*
X31016666Y6898332D01*
X31088332Y6969998D01*
X31229999Y7041665D01*
X31516666Y7041665D01*
X31659999Y6969998D01*
X32444999Y6041665D02*
X32303332Y6113332D01*
X32231666Y6184998D01*
X32159999Y6326665D01*
X32159999Y6756665D01*
X32231666Y6898332D01*
X32303332Y6969998D01*
X32444999Y7041665D01*
X32659999Y7041665D01*
X32803332Y6969998D01*
X32874999Y6898332D01*
X32944999Y6756665D01*
X32944999Y6326665D01*
X32874999Y6184998D01*
X32803332Y6113332D01*
X32659999Y6041665D01*
X32444999Y6041665D01*
X33444999Y7041665D02*
X33444999Y6041665D01*
X33444999Y6898332D02*
X33516666Y6969998D01*
X33659999Y7041665D01*
X33873332Y7041665D01*
X34016666Y6969998D01*
X34088332Y6826665D01*
X34088332Y6041665D01*
X34588332Y7041665D02*
X34588332Y6041665D01*
X34588332Y6898332D02*
X34659999Y6969998D01*
X34803332Y7041665D01*
X35016665Y7041665D01*
X35159999Y6969998D01*
X35231665Y6826665D01*
X35231665Y6041665D01*
X36374998Y6113332D02*
X36231665Y6041665D01*
X35946665Y6041665D01*
X35803332Y6113332D01*
X35731665Y6256665D01*
X35731665Y6826665D01*
X35803332Y6969998D01*
X35946665Y7041665D01*
X36231665Y7041665D01*
X36374998Y6969998D01*
X36446665Y6826665D01*
X36446665Y6684998D01*
X35731665Y6541665D01*
X37661665Y6113332D02*
X37518332Y6041665D01*
X37231665Y6041665D01*
X37089998Y6113332D01*
X37018332Y6184998D01*
X36946665Y6326665D01*
X36946665Y6756665D01*
X37018332Y6898332D01*
X37089998Y6969998D01*
X37231665Y7041665D01*
X37518332Y7041665D01*
X37661665Y6969998D01*
X38161665Y7041665D02*
X38733332Y7041665D01*
X38376665Y7541665D02*
X38376665Y6256665D01*
X38446665Y6113332D01*
X38589998Y6041665D01*
X38733332Y6041665D01*
X39304999Y6041665D02*
X39304999Y7041665D01*
X39304999Y7541665D02*
X39233332Y7469998D01*
X39304999Y7398332D01*
X39376665Y7469998D01*
X39304999Y7541665D01*
X39304999Y7398332D01*
X40161665Y6041665D02*
X40019998Y6113332D01*
X39948332Y6184998D01*
X39876665Y6326665D01*
X39876665Y6756665D01*
X39948332Y6898332D01*
X40019998Y6969998D01*
X40161665Y7041665D01*
X40376665Y7041665D01*
X40519998Y6969998D01*
X40591665Y6898332D01*
X40661665Y6756665D01*
X40661665Y6326665D01*
X40591665Y6184998D01*
X40519998Y6113332D01*
X40376665Y6041665D01*
X40161665Y6041665D01*
X41161665Y7041665D02*
X41161665Y6041665D01*
X41161665Y6898332D02*
X41233332Y6969998D01*
X41376665Y7041665D01*
X41589998Y7041665D01*
X41733332Y6969998D01*
X41804998Y6826665D01*
X41804998Y6041665D01*
X43404997Y7041665D02*
X43976664Y7041665D01*
X43619997Y6041665D02*
X43619997Y7326665D01*
X43689997Y7469998D01*
X43833330Y7541665D01*
X43976664Y7541665D01*
X45191664Y6041665D02*
X45191664Y6826665D01*
X45119997Y6969998D01*
X44976664Y7041665D01*
X44691664Y7041665D01*
X44548331Y6969998D01*
X45191664Y6113332D02*
X45048331Y6041665D01*
X44691664Y6041665D01*
X44548331Y6113332D01*
X44476664Y6256665D01*
X44476664Y6398332D01*
X44548331Y6541665D01*
X44691664Y6613332D01*
X45048331Y6613332D01*
X45191664Y6684998D01*
X45763331Y6041665D02*
X45763331Y7041665D01*
X45763331Y7541665D02*
X45691664Y7469998D01*
X45763331Y7398332D01*
X45834997Y7469998D01*
X45763331Y7541665D01*
X45763331Y7398332D01*
X46549997Y6041665D02*
X46406664Y6113332D01*
X46334997Y6256665D01*
X46334997Y7541665D01*
X47693330Y7041665D02*
X47693330Y6041665D01*
X47049997Y7041665D02*
X47049997Y6256665D01*
X47121664Y6113332D01*
X47264997Y6041665D01*
X47478330Y6041665D01*
X47621664Y6113332D01*
X47693330Y6184998D01*
X48193330Y6041665D02*
X48193330Y7041665D01*
X48193330Y6756665D02*
X48264997Y6898332D01*
X48336663Y6969998D01*
X48478330Y7041665D01*
X48621663Y7041665D01*
X49764996Y6113332D02*
X49621663Y6041665D01*
X49336663Y6041665D01*
X49193330Y6113332D01*
X49121663Y6256665D01*
X49121663Y6826665D01*
X49193330Y6969998D01*
X49336663Y7041665D01*
X49621663Y7041665D01*
X49764996Y6969998D01*
X49836663Y6826665D01*
X49836663Y6684998D01*
X49121663Y6541665D01*
X50408330Y6184998D02*
X50479996Y6113332D01*
X50408330Y6041665D01*
X50336663Y6113332D01*
X50408330Y6184998D01*
X50408330Y6041665D01*
X52223328Y6469998D02*
X52936662Y6469998D01*
X52079995Y6041665D02*
X52579995Y7541665D01*
X53079995Y6041665D01*
X53579995Y7041665D02*
X54151662Y7041665D01*
X53794995Y6041665D02*
X53794995Y7326665D01*
X53864995Y7469998D01*
X54008328Y7541665D01*
X54151662Y7541665D01*
X54651662Y7041665D02*
X55223329Y7041665D01*
X54866662Y7541665D02*
X54866662Y6256665D01*
X54936662Y6113332D01*
X55079995Y6041665D01*
X55223329Y6041665D01*
X56366662Y6113332D02*
X56223329Y6041665D01*
X55938329Y6041665D01*
X55794996Y6113332D01*
X55723329Y6256665D01*
X55723329Y6826665D01*
X55794996Y6969998D01*
X55938329Y7041665D01*
X56223329Y7041665D01*
X56366662Y6969998D01*
X56438329Y6826665D01*
X56438329Y6684998D01*
X55723329Y6541665D01*
X56938329Y6041665D02*
X56938329Y7041665D01*
X56938329Y6756665D02*
X57009996Y6898332D01*
X57081662Y6969998D01*
X57223329Y7041665D01*
X57366662Y7041665D01*
X58966661Y6041665D02*
X58966661Y7041665D01*
X58966661Y6756665D02*
X59038328Y6898332D01*
X59109994Y6969998D01*
X59251661Y7041665D01*
X59394994Y7041665D01*
X60538327Y6113332D02*
X60394994Y6041665D01*
X60109994Y6041665D01*
X59966661Y6113332D01*
X59894994Y6256665D01*
X59894994Y6826665D01*
X59966661Y6969998D01*
X60109994Y7041665D01*
X60394994Y7041665D01*
X60538327Y6969998D01*
X60609994Y6826665D01*
X60609994Y6684998D01*
X59894994Y6541665D01*
X61109994Y6113332D02*
X61253327Y6041665D01*
X61538327Y6041665D01*
X61681661Y6113332D01*
X61753327Y6256665D01*
X61753327Y6326665D01*
X61681661Y6469998D01*
X61538327Y6541665D01*
X61324994Y6541665D01*
X61181661Y6613332D01*
X61109994Y6756665D01*
X61109994Y6826665D01*
X61181661Y6969998D01*
X61324994Y7041665D01*
X61538327Y7041665D01*
X61681661Y6969998D01*
X62896660Y6113332D02*
X62753327Y6041665D01*
X62468327Y6041665D01*
X62324994Y6113332D01*
X62253327Y6256665D01*
X62253327Y6826665D01*
X62324994Y6969998D01*
X62468327Y7041665D01*
X62753327Y7041665D01*
X62896660Y6969998D01*
X62968327Y6826665D01*
X62968327Y6684998D01*
X62253327Y6541665D01*
X63468327Y7041665D02*
X64039994Y7041665D01*
X63683327Y7541665D02*
X63683327Y6256665D01*
X63753327Y6113332D01*
X63896660Y6041665D01*
X64039994Y6041665D01*
X65854993Y6041665D02*
X65711660Y6113332D01*
X65639993Y6256665D01*
X65639993Y7541665D01*
X66639993Y6041665D02*
X66498326Y6113332D01*
X66426660Y6184998D01*
X66354993Y6326665D01*
X66354993Y6756665D01*
X66426660Y6898332D01*
X66498326Y6969998D01*
X66639993Y7041665D01*
X66854993Y7041665D01*
X66998326Y6969998D01*
X67069993Y6898332D01*
X67139993Y6756665D01*
X67139993Y6326665D01*
X67069993Y6184998D01*
X66998326Y6113332D01*
X66854993Y6041665D01*
X66639993Y6041665D01*
X67924993Y6041665D02*
X67783326Y6113332D01*
X67711660Y6184998D01*
X67639993Y6326665D01*
X67639993Y6756665D01*
X67711660Y6898332D01*
X67783326Y6969998D01*
X67924993Y7041665D01*
X68139993Y7041665D01*
X68283326Y6969998D01*
X68354993Y6898332D01*
X68424993Y6756665D01*
X68424993Y6326665D01*
X68354993Y6184998D01*
X68283326Y6113332D01*
X68139993Y6041665D01*
X67924993Y6041665D01*
X68924993Y6041665D02*
X68924993Y7541665D01*
X69068326Y6613332D02*
X69496660Y6041665D01*
X69496660Y7041665D02*
X68924993Y6469998D01*
X71096659Y7041665D02*
X71668326Y7041665D01*
X71311659Y6041665D02*
X71311659Y7326665D01*
X71381659Y7469998D01*
X71524992Y7541665D01*
X71668326Y7541665D01*
X72453326Y6041665D02*
X72311659Y6113332D01*
X72239993Y6184998D01*
X72168326Y6326665D01*
X72168326Y6756665D01*
X72239993Y6898332D01*
X72311659Y6969998D01*
X72453326Y7041665D01*
X72668326Y7041665D01*
X72811659Y6969998D01*
X72883326Y6898332D01*
X72953326Y6756665D01*
X72953326Y6326665D01*
X72883326Y6184998D01*
X72811659Y6113332D01*
X72668326Y6041665D01*
X72453326Y6041665D01*
X73453326Y6041665D02*
X73453326Y7041665D01*
X73453326Y6756665D02*
X73524993Y6898332D01*
X73596659Y6969998D01*
X73738326Y7041665D01*
X73881659Y7041665D01*
X30944999Y4675000D02*
X31301666Y3175000D01*
X31588332Y4246667D01*
X31873332Y3175000D01*
X32229999Y4675000D01*
X32801666Y3175000D02*
X32801666Y4175000D01*
X32801666Y4675000D02*
X32729999Y4603333D01*
X32801666Y4531667D01*
X32873332Y4603333D01*
X32801666Y4675000D01*
X32801666Y4531667D01*
X33873332Y3960000D02*
X33373332Y3960000D01*
X33373332Y3175000D02*
X33373332Y4675000D01*
X34088332Y4675000D01*
X34659999Y3175000D02*
X34659999Y4175000D01*
X34659999Y4675000D02*
X34588332Y4603333D01*
X34659999Y4531667D01*
X34731665Y4603333D01*
X34659999Y4675000D01*
X34659999Y4531667D01*
X37046664Y3175000D02*
X37046664Y3960000D01*
X36974997Y4103333D01*
X36831664Y4175000D01*
X36546664Y4175000D01*
X36403331Y4103333D01*
X37046664Y3246667D02*
X36903331Y3175000D01*
X36546664Y3175000D01*
X36403331Y3246667D01*
X36331664Y3390000D01*
X36331664Y3531667D01*
X36403331Y3675000D01*
X36546664Y3746667D01*
X36903331Y3746667D01*
X37046664Y3818333D01*
X38261664Y3246667D02*
X38118331Y3175000D01*
X37831664Y3175000D01*
X37689997Y3246667D01*
X37618331Y3318333D01*
X37546664Y3460000D01*
X37546664Y3890000D01*
X37618331Y4031667D01*
X37689997Y4103333D01*
X37831664Y4175000D01*
X38118331Y4175000D01*
X38261664Y4103333D01*
X39476664Y3246667D02*
X39333331Y3175000D01*
X39046664Y3175000D01*
X38904997Y3246667D01*
X38833331Y3318333D01*
X38761664Y3460000D01*
X38761664Y3890000D01*
X38833331Y4031667D01*
X38904997Y4103333D01*
X39046664Y4175000D01*
X39333331Y4175000D01*
X39476664Y4103333D01*
X40619997Y3246667D02*
X40476664Y3175000D01*
X40191664Y3175000D01*
X40048331Y3246667D01*
X39976664Y3390000D01*
X39976664Y3960000D01*
X40048331Y4103333D01*
X40191664Y4175000D01*
X40476664Y4175000D01*
X40619997Y4103333D01*
X40691664Y3960000D01*
X40691664Y3818333D01*
X39976664Y3675000D01*
X41191664Y3246667D02*
X41334997Y3175000D01*
X41619997Y3175000D01*
X41763331Y3246667D01*
X41834997Y3390000D01*
X41834997Y3460000D01*
X41763331Y3603333D01*
X41619997Y3675000D01*
X41406664Y3675000D01*
X41263331Y3746667D01*
X41191664Y3890000D01*
X41191664Y3960000D01*
X41263331Y4103333D01*
X41406664Y4175000D01*
X41619997Y4175000D01*
X41763331Y4103333D01*
X42334997Y3246667D02*
X42478330Y3175000D01*
X42763330Y3175000D01*
X42906664Y3246667D01*
X42978330Y3390000D01*
X42978330Y3460000D01*
X42906664Y3603333D01*
X42763330Y3675000D01*
X42549997Y3675000D01*
X42406664Y3746667D01*
X42334997Y3890000D01*
X42334997Y3960000D01*
X42406664Y4103333D01*
X42549997Y4175000D01*
X42763330Y4175000D01*
X42906664Y4103333D01*
X44578329Y4175000D02*
X44578329Y2675000D01*
X44578329Y4103333D02*
X44721662Y4175000D01*
X45006662Y4175000D01*
X45149996Y4103333D01*
X45221662Y4031667D01*
X45293329Y3890000D01*
X45293329Y3460000D01*
X45221662Y3318333D01*
X45149996Y3246667D01*
X45006662Y3175000D01*
X44721662Y3175000D01*
X44578329Y3246667D01*
X46078329Y3175000D02*
X45936662Y3246667D01*
X45864996Y3318333D01*
X45793329Y3460000D01*
X45793329Y3890000D01*
X45864996Y4031667D01*
X45936662Y4103333D01*
X46078329Y4175000D01*
X46293329Y4175000D01*
X46436662Y4103333D01*
X46508329Y4031667D01*
X46578329Y3890000D01*
X46578329Y3460000D01*
X46508329Y3318333D01*
X46436662Y3246667D01*
X46293329Y3175000D01*
X46078329Y3175000D01*
X47149996Y3175000D02*
X47149996Y4175000D01*
X47149996Y4675000D02*
X47078329Y4603333D01*
X47149996Y4531667D01*
X47221662Y4603333D01*
X47149996Y4675000D01*
X47149996Y4531667D01*
X47721662Y4175000D02*
X47721662Y3175000D01*
X47721662Y4031667D02*
X47793329Y4103333D01*
X47936662Y4175000D01*
X48149995Y4175000D01*
X48293329Y4103333D01*
X48364995Y3960000D01*
X48364995Y3175000D01*
X48864995Y4175000D02*
X49436662Y4175000D01*
X49079995Y4675000D02*
X49079995Y3390000D01*
X49149995Y3246667D01*
X49293328Y3175000D01*
X49436662Y3175000D01*
X51036661Y4175000D02*
X51036661Y3175000D01*
X51036661Y4031667D02*
X51108328Y4103333D01*
X51251661Y4175000D01*
X51464994Y4175000D01*
X51608328Y4103333D01*
X51679994Y3960000D01*
X51679994Y3175000D01*
X52179994Y3746667D02*
X53323327Y3746667D01*
X53823327Y4175000D02*
X54108327Y3175000D01*
X54394994Y3890000D01*
X54679994Y3175000D01*
X54966660Y4175000D01*
X56109993Y3246667D02*
X55966660Y3175000D01*
X55681660Y3175000D01*
X55538327Y3246667D01*
X55466660Y3390000D01*
X55466660Y3960000D01*
X55538327Y4103333D01*
X55681660Y4175000D01*
X55966660Y4175000D01*
X56109993Y4103333D01*
X56181660Y3960000D01*
X56181660Y3818333D01*
X55466660Y3675000D01*
X57396660Y3175000D02*
X57396660Y3960000D01*
X57324993Y4103333D01*
X57181660Y4175000D01*
X56896660Y4175000D01*
X56753327Y4103333D01*
X57396660Y3246667D02*
X57253327Y3175000D01*
X56896660Y3175000D01*
X56753327Y3246667D01*
X56681660Y3390000D01*
X56681660Y3531667D01*
X56753327Y3675000D01*
X56896660Y3746667D01*
X57253327Y3746667D01*
X57396660Y3818333D01*
X57896660Y4175000D02*
X58468327Y4175000D01*
X58111660Y4675000D02*
X58111660Y3390000D01*
X58181660Y3246667D01*
X58324993Y3175000D01*
X58468327Y3175000D01*
X58968327Y3175000D02*
X58968327Y4675000D01*
X59611660Y3175000D02*
X59611660Y3960000D01*
X59539994Y4103333D01*
X59396660Y4175000D01*
X59183327Y4175000D01*
X59039994Y4103333D01*
X58968327Y4031667D01*
X60754993Y3246667D02*
X60611660Y3175000D01*
X60326660Y3175000D01*
X60183327Y3246667D01*
X60111660Y3390000D01*
X60111660Y3960000D01*
X60183327Y4103333D01*
X60326660Y4175000D01*
X60611660Y4175000D01*
X60754993Y4103333D01*
X60826660Y3960000D01*
X60826660Y3818333D01*
X60111660Y3675000D01*
X61326660Y3175000D02*
X61326660Y4175000D01*
X61326660Y3890000D02*
X61398327Y4031667D01*
X61469993Y4103333D01*
X61611660Y4175000D01*
X61754993Y4175000D01*
X62326660Y3318333D02*
X62398326Y3246667D01*
X62326660Y3175000D01*
X62254993Y3246667D01*
X62326660Y3318333D01*
X62326660Y3175000D01*
X47981667Y22455000D02*
X48125000Y22455000D01*
X48268333Y22383333D01*
X48340000Y22311667D01*
X48410000Y22170000D01*
X48481667Y21883333D01*
X48481667Y21526667D01*
X48410000Y21240000D01*
X48340000Y21098333D01*
X48268333Y21026667D01*
X48125000Y20955000D01*
X47981667Y20955000D01*
X47840000Y21026667D01*
X47768333Y21098333D01*
X47696667Y21240000D01*
X47625000Y21526667D01*
X47625000Y21883333D01*
X47696667Y22170000D01*
X47768333Y22311667D01*
X47840000Y22383333D01*
X47981667Y22455000D01*
X49766667Y22455000D02*
X49053334Y22455000D01*
X48981667Y21740000D01*
X49053334Y21811667D01*
X49196667Y21883333D01*
X49553334Y21883333D01*
X49696667Y21811667D01*
X49766667Y21740000D01*
X49838334Y21598333D01*
X49838334Y21240000D01*
X49766667Y21098333D01*
X49696667Y21026667D01*
X49553334Y20955000D01*
X49196667Y20955000D01*
X49053334Y21026667D01*
X48981667Y21098333D01*
X50338334Y21526667D02*
X51481667Y21526667D01*
X52838334Y20955000D02*
X51981667Y20955000D01*
X52410000Y20955000D02*
X52410000Y22455000D01*
X52266667Y22240000D01*
X52125000Y22098333D01*
X51981667Y22026667D01*
X53338334Y22455000D02*
X54338334Y22455000D01*
X53695001Y20955000D01*
X54838334Y21526667D02*
X55981667Y21526667D01*
X56553334Y22311667D02*
X56625000Y22383333D01*
X56766667Y22455000D01*
X57125000Y22455000D01*
X57266667Y22383333D01*
X57338334Y22311667D01*
X57410000Y22170000D01*
X57410000Y22026667D01*
X57338334Y21811667D01*
X56481667Y20955000D01*
X57410000Y20955000D01*
X58266667Y22455000D02*
X58410000Y22455000D01*
X58553333Y22383333D01*
X58625000Y22311667D01*
X58695000Y22170000D01*
X58766667Y21883333D01*
X58766667Y21526667D01*
X58695000Y21240000D01*
X58625000Y21098333D01*
X58553333Y21026667D01*
X58410000Y20955000D01*
X58266667Y20955000D01*
X58125000Y21026667D01*
X58053333Y21098333D01*
X57981667Y21240000D01*
X57910000Y21526667D01*
X57910000Y21883333D01*
X57981667Y22170000D01*
X58053333Y22311667D01*
X58125000Y22383333D01*
X58266667Y22455000D01*
X59338334Y22311667D02*
X59410000Y22383333D01*
X59551667Y22455000D01*
X59910000Y22455000D01*
X60051667Y22383333D01*
X60123334Y22311667D01*
X60195000Y22170000D01*
X60195000Y22026667D01*
X60123334Y21811667D01*
X59266667Y20955000D01*
X60195000Y20955000D01*
X61051667Y22455000D02*
X61195000Y22455000D01*
X61338333Y22383333D01*
X61410000Y22311667D01*
X61480000Y22170000D01*
X61551667Y21883333D01*
X61551667Y21526667D01*
X61480000Y21240000D01*
X61410000Y21098333D01*
X61338333Y21026667D01*
X61195000Y20955000D01*
X61051667Y20955000D01*
X60910000Y21026667D01*
X60838333Y21098333D01*
X60766667Y21240000D01*
X60695000Y21526667D01*
X60695000Y21883333D01*
X60766667Y22170000D01*
X60838333Y22311667D01*
X60910000Y22383333D01*
X61051667Y22455000D01*
X59553889Y51165000D02*
X59553889Y50355000D01*
X59601667Y50260556D01*
X59649445Y50212778D01*
X59743889Y50165000D01*
X59935000Y50165000D01*
X60030556Y50212778D01*
X60077222Y50260556D01*
X60125000Y50355000D01*
X60125000Y51165000D01*
X61096111Y50165000D02*
X60525000Y50165000D01*
X60810556Y50165000D02*
X60810556Y51165000D01*
X60715000Y51021667D01*
X60620556Y50927222D01*
X60525000Y50879444D01*
X22701667Y12411667D02*
X22748333Y12555001D01*
X22796111Y12601667D01*
X22891667Y12649445D01*
X23035000Y12649445D01*
X23129444Y12601667D01*
X23177222Y12555001D01*
X23225000Y12459445D01*
X23225000Y12078334D01*
X22225000Y12078334D01*
X22225000Y12411667D01*
X22272778Y12507223D01*
X22320556Y12555001D01*
X22415000Y12601667D01*
X22510556Y12601667D01*
X22606111Y12555001D01*
X22653889Y12507223D01*
X22701667Y12411667D01*
X22701667Y12078334D01*
X22701667Y13382778D02*
X22748333Y13526112D01*
X22796111Y13572778D01*
X22891667Y13620556D01*
X23035000Y13620556D01*
X23129444Y13572778D01*
X23177222Y13526112D01*
X23225000Y13430556D01*
X23225000Y13049445D01*
X22225000Y13049445D01*
X22225000Y13382778D01*
X22272778Y13478334D01*
X22320556Y13526112D01*
X22415000Y13572778D01*
X22510556Y13572778D01*
X22606111Y13526112D01*
X22653889Y13478334D01*
X22701667Y13382778D01*
X22701667Y13049445D01*
X23225000Y14591667D02*
X23225000Y14020556D01*
X23225000Y14306112D02*
X22225000Y14306112D01*
X22368333Y14210556D01*
X22462778Y14116112D01*
X22510556Y14020556D01*
X39052500Y45833335D02*
X38575833Y45500002D01*
X39052500Y45262224D02*
X38052500Y45262224D01*
X38052500Y45643335D01*
X38100278Y45738891D01*
X38148056Y45785557D01*
X38242500Y45833335D01*
X38385833Y45833335D01*
X38481389Y45785557D01*
X38529167Y45738891D01*
X38575833Y45643335D01*
X38575833Y45262224D01*
X38148056Y46281113D02*
X38100278Y46328891D01*
X38052500Y46423335D01*
X38052500Y46662224D01*
X38100278Y46756668D01*
X38148056Y46804446D01*
X38242500Y46852224D01*
X38338056Y46852224D01*
X38481389Y46804446D01*
X39052500Y46233335D01*
X39052500Y46852224D01*
X38671389Y48052223D02*
X38671389Y48814445D01*
X39052500Y50585555D02*
X39052500Y50014444D01*
X39052500Y50300000D02*
X38052500Y50300000D01*
X38195833Y50204444D01*
X38290278Y50110000D01*
X38338056Y50014444D01*
X38052500Y51223333D02*
X38052500Y51318888D01*
X38100278Y51414444D01*
X38148056Y51462222D01*
X38242500Y51508888D01*
X38433611Y51556666D01*
X38671389Y51556666D01*
X38862500Y51508888D01*
X38956944Y51462222D01*
X39004722Y51414444D01*
X39052500Y51318888D01*
X39052500Y51223333D01*
X39004722Y51128888D01*
X38956944Y51081111D01*
X38862500Y51033333D01*
X38671389Y50985555D01*
X38433611Y50985555D01*
X38242500Y51033333D01*
X38148056Y51081111D01*
X38100278Y51128888D01*
X38052500Y51223333D01*
X39052500Y51956666D02*
X38052500Y51956666D01*
X39052500Y52527777D02*
X38481389Y52099999D01*
X38052500Y52527777D02*
X38623611Y51956666D01*
X31500000Y36932225D02*
X32214444Y36932225D01*
X32356667Y36884447D01*
X32452222Y36788892D01*
X32500000Y36646670D01*
X32500000Y36551114D01*
X32500000Y37903336D02*
X32500000Y37332225D01*
X32500000Y37617781D02*
X31500000Y37617781D01*
X31643333Y37522225D01*
X31737778Y37427781D01*
X31785556Y37332225D01*
X32118889Y39103335D02*
X32118889Y39865557D01*
X32500000Y41636667D02*
X32023333Y41303334D01*
X32500000Y41065556D02*
X31500000Y41065556D01*
X31500000Y41446667D01*
X31547778Y41542223D01*
X31595556Y41588889D01*
X31690000Y41636667D01*
X31833333Y41636667D01*
X31928889Y41588889D01*
X31976667Y41542223D01*
X32023333Y41446667D01*
X32023333Y41065556D01*
X32452222Y42465556D02*
X32500000Y42370000D01*
X32500000Y42180000D01*
X32452222Y42084445D01*
X32356667Y42036667D01*
X31976667Y42036667D01*
X31881111Y42084445D01*
X31833333Y42180000D01*
X31833333Y42370000D01*
X31881111Y42465556D01*
X31976667Y42513334D01*
X32071111Y42513334D01*
X32166667Y42036667D01*
X32452222Y42913334D02*
X32500000Y43008890D01*
X32500000Y43198890D01*
X32452222Y43294445D01*
X32356667Y43342223D01*
X32310000Y43342223D01*
X32214444Y43294445D01*
X32166667Y43198890D01*
X32166667Y43056667D01*
X32118889Y42961112D01*
X32023333Y42913334D01*
X31976667Y42913334D01*
X31881111Y42961112D01*
X31833333Y43056667D01*
X31833333Y43198890D01*
X31881111Y43294445D01*
X32452222Y44171112D02*
X32500000Y44075556D01*
X32500000Y43885556D01*
X32452222Y43790001D01*
X32356667Y43742223D01*
X31976667Y43742223D01*
X31881111Y43790001D01*
X31833333Y43885556D01*
X31833333Y44075556D01*
X31881111Y44171112D01*
X31976667Y44218890D01*
X32071111Y44218890D01*
X32166667Y43742223D01*
X31833333Y44618890D02*
X31833333Y45000001D01*
X31500000Y44762223D02*
X32356667Y44762223D01*
X32452222Y44808890D01*
X32500000Y44904446D01*
X32500000Y45000001D01*
X84771111Y62865000D02*
X84771111Y62150556D01*
X84723333Y62008333D01*
X84627778Y61912778D01*
X84485556Y61865000D01*
X84390000Y61865000D01*
X85218889Y62769444D02*
X85266667Y62817222D01*
X85361111Y62865000D01*
X85600000Y62865000D01*
X85694444Y62817222D01*
X85742222Y62769444D01*
X85790000Y62675000D01*
X85790000Y62579444D01*
X85742222Y62436111D01*
X85171111Y61865000D01*
X85790000Y61865000D01*
X25241667Y63187778D02*
X25288333Y63331112D01*
X25336111Y63377778D01*
X25431667Y63425556D01*
X25575000Y63425556D01*
X25669444Y63377778D01*
X25717222Y63331112D01*
X25765000Y63235556D01*
X25765000Y62854445D01*
X24765000Y62854445D01*
X24765000Y63187778D01*
X24812778Y63283334D01*
X24860556Y63331112D01*
X24955000Y63377778D01*
X25050556Y63377778D01*
X25146111Y63331112D01*
X25193889Y63283334D01*
X25241667Y63187778D01*
X25241667Y62854445D01*
X25241667Y64158889D02*
X25288333Y64302223D01*
X25336111Y64348889D01*
X25431667Y64396667D01*
X25575000Y64396667D01*
X25669444Y64348889D01*
X25717222Y64302223D01*
X25765000Y64206667D01*
X25765000Y63825556D01*
X24765000Y63825556D01*
X24765000Y64158889D01*
X24812778Y64254445D01*
X24860556Y64302223D01*
X24955000Y64348889D01*
X25050556Y64348889D01*
X25146111Y64302223D01*
X25193889Y64254445D01*
X25241667Y64158889D01*
X25241667Y63825556D01*
X24860556Y64844445D02*
X24812778Y64892223D01*
X24765000Y64986667D01*
X24765000Y65225556D01*
X24812778Y65320000D01*
X24860556Y65367778D01*
X24955000Y65415556D01*
X25050556Y65415556D01*
X25193889Y65367778D01*
X25765000Y64796667D01*
X25765000Y65415556D01*
%LPC*%
D15*
X50165000Y52705000D03*
X50165000Y57785000D03*
X50165000Y50165000D03*
X73025000Y32385000D03*
X50165000Y32385000D03*
X73025000Y47625000D03*
X50165000Y55245000D03*
X50165000Y60325000D03*
X73025000Y65405000D03*
X73025000Y62865000D03*
X73025000Y37465000D03*
X50165000Y40005000D03*
X73025000Y42545000D03*
X50165000Y45085000D03*
X73025000Y52705000D03*
X50165000Y37465000D03*
X50165000Y67945000D03*
X73025000Y34925000D03*
X50165000Y47625000D03*
X50165000Y42545000D03*
X50165000Y34925000D03*
X73025000Y55245000D03*
X73025000Y45085000D03*
X73025000Y40005000D03*
X73025000Y67945000D03*
X73025000Y60325000D03*
X73025000Y57785000D03*
X73025000Y50165000D03*
X50165000Y65405000D03*
X50165000Y62865000D03*
D16*
X17145000Y18415000D03*
X22225000Y18415000D03*
X14605000Y18415000D03*
X19685000Y18415000D03*
D17*
X40640000Y52705000D03*
X40640000Y45085000D03*
D18*
X34925000Y41910000D03*
D19*
X34925000Y39370000D03*
D18*
X85090000Y67945000D03*
D19*
X85090000Y65405000D03*
D16*
X22225000Y71755000D03*
X12065000Y71755000D03*
X24765000Y71755000D03*
X19685000Y71755000D03*
X17145000Y36195000D03*
X17145000Y71755000D03*
X19685000Y36195000D03*
X14605000Y71755000D03*
X14605000Y36195000D03*
X22225000Y36195000D03*
G04 --- BOARD END --- *
%TF.MD5,3c793065ffe2cae041bf9c7a3c005dff*%
M02*
